<?xml version="1.0" standalone="no"?>
<!DOCTYPE svg PUBLIC "-//W3C//DTD SVG 20010904//EN"
 "http://www.w3.org/TR/2001/REC-SVG-20010904/DTD/svg10.dtd">
<svg version="1.0" xmlns="http://www.w3.org/2000/svg"
 width="1421.000000pt" height="1078.000000pt" viewBox="0 0 1421.000000 1078.000000"
 preserveAspectRatio="xMidYMid meet">

<g transform="translate(0.000000,1078.000000) scale(0.100000,-0.100000)"
fill="#000000" stroke="none">
<path d="M0 5390 l0 -5390 574 0 c450 0 576 3 580 13 5 10 7 10 12 0 9 -20 31
-15 37 7 3 13 14 20 29 20 14 0 28 3 32 7 7 8 238 15 476 16 63 0 188 -6 276
-13 150 -12 161 -14 157 -31 -5 -18 11 -19 523 -19 356 1 523 4 512 11 -10 5
-137 12 -290 14 -359 7 -455 12 -503 30 -22 8 -64 14 -94 15 l-54 0 24 18 c13
10 60 26 104 37 44 10 88 25 98 33 15 13 21 13 50 -2 26 -15 50 -17 137 -13
209 9 525 39 570 54 11 4 7 8 -12 15 -28 10 -43 34 -28 43 6 4 74 10 151 15
78 5 144 11 147 14 3 4 3 6 1 7 -101 20 -395 40 -564 39 -60 0 -116 -8 -128
-19 -10 -7 -17 -7 -24 0 -11 11 -184 7 -271 -7 -28 -4 -48 -2 -55 5 -16 16
-92 14 -107 -3 -6 -8 -24 -16 -38 -18 -15 -2 -26 -8 -25 -14 2 -13 -60 -26
-83 -17 -7 3 -11 9 -8 14 3 5 -4 9 -16 9 -12 0 -19 -4 -16 -9 11 -17 -98 -31
-141 -17 -12 4 -46 0 -75 -8 -29 -8 -75 -17 -102 -20 -27 -2 -52 -9 -56 -16
-5 -8 -65 -11 -206 -9 -173 2 -261 2 -464 1 -57 0 -544 1 -850 2 l-235 1 -3
32 c-4 36 0 38 44 23 39 -13 449 -19 587 -9 62 4 159 11 217 15 94 6 113 10
185 45 45 22 92 39 106 39 14 0 50 4 80 9 30 6 101 15 159 21 58 6 148 18 200
26 52 9 119 17 149 20 29 2 59 8 65 12 22 17 647 23 816 8 124 -11 1461 -15
1554 -4 46 5 235 4 455 -1 207 -5 378 -8 380 -5 2 2 -1 10 -7 17 -22 26 -237
39 -767 45 -286 3 -612 5 -725 4 -113 -2 -239 2 -280 8 -147 21 -461 34 -840
34 -464 1 -670 -8 -760 -34 -81 -23 -242 -47 -380 -56 -58 -3 -123 -12 -145
-20 -22 -7 -60 -16 -84 -20 -30 -5 -45 -13 -48 -25 -7 -27 -39 -30 -380 -37
-322 -7 -556 -3 -569 11 -5 4 -8 58 -9 120 l0 112 70 2 c367 12 2272 19 4050
14 1199 -3 2479 -6 2845 -7 908 -1 2076 -14 2185 -25 96 -10 458 -27 640 -31
61 -1 148 4 195 11 103 15 1084 33 1940 35 475 2 604 5 640 16 37 11 178 13
780 12 l735 -2 19 -23 c14 -17 17 -31 12 -67 -3 -24 -12 -50 -19 -57 -9 -9
-192 -14 -782 -19 -711 -6 -1002 -2 -1315 21 -48 4 -1426 6 -1535 2 -22 0
-103 1 -181 3 -78 1 -147 0 -153 -4 -7 -5 -162 -10 -344 -12 -300 -3 -413 -7
-502 -20 -16 -3 -181 -9 -365 -14 -184 -5 -393 -14 -465 -19 -71 -6 -231 -10
-355 -10 -124 0 -310 -7 -415 -16 -228 -20 -590 -34 -849 -34 -207 0 -376 -17
-376 -37 0 -13 37 -24 85 -25 17 -1 127 -3 245 -6 131 -3 229 0 250 6 20 6
212 13 435 16 449 6 1554 7 1564 0 4 -2 133 -7 287 -10 l279 -7 38 26 c36 25
43 26 205 28 454 6 562 4 572 -12 7 -12 33 -15 130 -15 80 0 123 4 128 11 5 8
50 12 132 13 69 1 197 5 285 10 169 9 261 8 361 -4 38 -5 88 -3 130 5 98 17
537 21 884 8 294 -11 639 -15 1287 -17 l342 -1 11 -37 c6 -21 14 -81 16 -133
6 -110 -4 -137 -46 -123 -14 4 -167 6 -340 3 -607 -10 -1348 -10 -1580 0 -188
8 -456 16 -648 20 -15 0 -26 9 -32 26 -11 27 -36 28 -34 0 2 -13 -8 -16 -60
-14 -34 1 -47 3 -28 5 26 4 32 9 32 29 0 14 -6 27 -13 30 -30 11 -463 30 -697
29 -529 0 -1076 -12 -1155 -24 -227 -35 -279 -41 -333 -41 -38 0 -64 -5 -71
-14 -6 -7 -39 -16 -74 -20 -34 -3 -719 -8 -1522 -11 -2100 -7 -2245 -10 -2245
-54 0 -8 1344 -11 4445 -11 l4445 0 0 5390 c0 4564 -2 5390 -14 5390 -11 0
-15 -76 -20 -437 -4 -241 -4 -485 0 -543 5 -58 7 -195 6 -305 -1 -110 -4 -710
-7 -1334 -4 -790 -9 -1138 -16 -1147 -9 -11 -17 -9 -43 10 -42 32 -239 131
-301 151 -61 21 -191 33 -256 25 -98 -13 -149 32 -120 103 24 58 24 85 2 122
-12 20 -21 42 -21 48 0 7 -13 37 -30 68 -16 31 -39 80 -50 109 l-21 54 20 27
c33 44 35 72 10 120 -12 24 -32 56 -45 71 -12 15 -25 42 -29 60 -4 18 -13 40
-20 48 -7 8 -25 51 -40 95 -15 44 -32 89 -39 100 -7 11 -27 58 -46 105 -18 47
-42 101 -54 120 -16 27 -21 52 -21 112 0 70 -2 79 -27 105 -21 22 -28 39 -28
69 0 34 -4 43 -25 52 -14 7 -46 12 -70 12 -42 0 -46 2 -60 36 -30 73 -16 114
40 114 60 0 70 36 26 90 -26 31 -35 35 -78 36 -34 0 -60 8 -88 26 -37 25 -48
26 -167 27 -103 1 -129 -1 -142 -14 -19 -20 -21 -94 -3 -119 12 -16 14 -16 40
4 l27 21 0 -71 c0 -84 -19 -136 -55 -150 -14 -5 -25 -17 -25 -28 0 -37 -22
-81 -43 -88 -12 -3 -32 -15 -44 -26 -16 -15 -29 -19 -50 -13 -63 15 -99 17
-109 3 -6 -7 -16 -42 -22 -77 -6 -37 -22 -80 -37 -100 -14 -21 -39 -74 -55
-120 -17 -45 -39 -99 -49 -119 -10 -20 -26 -64 -36 -97 -10 -33 -28 -92 -41
-131 -13 -40 -26 -103 -29 -140 -4 -38 -11 -82 -16 -99 -17 -51 -41 -263 -48
-410 -4 -95 -11 -147 -20 -161 -13 -19 -12 -26 2 -56 9 -19 23 -77 32 -129 8
-52 18 -109 21 -128 3 -22 23 -52 55 -86 l49 -52 1 -134 c1 -221 11 -292 53
-391 26 -60 50 -98 80 -126 l41 -39 18 -144 c10 -79 25 -165 34 -192 15 -40
15 -52 4 -83 -9 -25 -10 -39 -3 -46 30 -30 227 -13 239 20 4 8 -4 22 -17 32
-21 16 -22 22 -16 75 9 76 21 99 49 90 55 -17 63 -16 90 10 34 35 75 121 87
185 10 53 26 90 38 90 4 0 18 -16 31 -35 30 -44 65 -47 99 -7 53 60 61 93 91
344 8 65 14 75 54 82 16 3 35 10 43 17 28 23 62 94 74 153 7 36 25 78 45 106
49 69 61 97 79 181 24 106 44 128 136 146 150 28 217 35 326 30 90 -4 122 -10
175 -32 95 -40 241 -131 291 -182 l43 -44 5 -792 c5 -715 3 -797 -11 -841 -13
-37 -14 -57 -7 -80 21 -66 23 -91 20 -230 -3 -140 -4 -144 -31 -177 -21 -24
-37 -34 -62 -35 -19 -1 -70 -14 -114 -29 -74 -26 -91 -27 -232 -26 -84 1 -165
6 -180 12 -16 6 -50 15 -77 20 -63 12 -134 53 -147 85 -29 79 14 256 76 307
43 35 44 60 8 130 -35 67 -74 206 -80 282 -5 63 20 257 43 340 8 28 30 79 49
115 19 35 35 68 35 74 0 11 67 113 80 121 18 11 41 78 31 88 -17 17 -45 2 -79
-43 -19 -25 -43 -49 -53 -54 -33 -16 -63 7 -77 58 -7 29 -18 46 -27 46 -25 0
-19 -64 10 -106 36 -52 32 -96 -14 -196 -52 -112 -62 -153 -70 -292 -9 -150
-10 -151 -153 -161 -81 -5 -117 -3 -170 10 -37 10 -72 23 -78 30 -12 14 -60 8
-60 -9 0 -6 21 -30 46 -53 53 -48 76 -53 249 -55 69 -1 118 3 132 10 18 10 25
9 37 -4 9 -8 16 -25 16 -36 0 -19 8 -41 51 -136 28 -64 25 -111 -12 -162 -45
-62 -68 -118 -74 -186 -10 -100 -11 -102 -56 -114 -99 -27 -214 -40 -360 -41
-180 0 -229 9 -259 51 -27 37 -44 42 -170 46 -271 9 -282 10 -339 40 -60 31
-177 159 -187 203 -4 14 -14 37 -22 51 -22 33 -30 269 -12 349 18 83 34 103
73 96 25 -5 37 -2 51 14 17 19 17 20 -6 35 -14 9 -58 27 -99 41 -233 80 -369
287 -369 562 0 138 40 258 127 387 19 27 32 54 30 60 -2 6 -20 14 -40 17 -20
3 -46 14 -56 23 -24 22 -31 12 -38 -61 -4 -31 -22 -93 -40 -137 -52 -122 -55
-140 -56 -291 0 -127 2 -147 28 -220 46 -133 89 -204 180 -289 63 -59 83 -72
137 -90 30 -9 32 -52 8 -124 -20 -58 -23 -85 -21 -192 2 -140 19 -222 59 -290
15 -25 30 -53 34 -63 13 -31 -2 -67 -35 -84 -68 -35 -543 -8 -589 34 -28 26
-34 67 -25 176 10 113 39 188 96 241 39 37 40 66 5 143 -14 32 -38 94 -53 138
-27 77 -27 85 -21 221 7 153 14 175 86 277 36 51 44 96 19 117 -8 7 -15 17
-15 23 0 6 -15 40 -32 76 -31 64 -32 71 -33 191 0 122 1 127 36 205 83 186
252 361 410 424 68 27 101 49 93 62 -3 5 -21 16 -40 24 -19 8 -34 20 -34 27 0
7 -11 35 -24 63 -14 27 -37 77 -51 111 -25 59 -26 63 -11 99 22 51 20 64 -13
117 -40 63 -159 357 -196 483 -9 33 -24 77 -33 98 -8 21 -14 59 -13 85 5 77 4
82 -33 138 -20 30 -36 58 -36 63 0 21 -42 33 -91 26 -37 -5 -50 -3 -54 7 -4
10 -31 13 -118 11 -153 -3 -209 4 -205 26 2 9 12 15 23 13 48 -7 135 -14 188
-14 62 -1 77 8 77 47 0 41 -51 63 -65 28 -6 -17 -7 -17 -16 0 -6 11 -22 17
-44 17 -32 0 -65 21 -65 41 0 18 -71 9 -100 -12 -20 -15 -45 -22 -86 -24 -53
-2 -60 -4 -91 -41 -18 -21 -38 -56 -44 -77 -10 -39 -25 -57 -74 -91 -26 -18
-27 -22 -22 -85 3 -45 1 -74 -9 -92 -7 -15 -29 -71 -48 -125 -19 -55 -48 -133
-66 -174 -43 -102 -87 -284 -100 -407 -9 -94 -4 -468 6 -485 3 -4 0 -16 -5
-26 -10 -19 -51 -25 -251 -37 -36 -3 -96 -9 -133 -16 -37 -6 -78 -8 -90 -5
-25 7 -60 75 -103 196 -15 41 -35 91 -45 110 -11 19 -19 40 -19 46 0 6 -23 41
-51 77 -48 63 -51 70 -59 149 -10 100 -28 162 -64 214 -23 35 -26 48 -26 129
-1 49 -8 124 -16 165 -23 112 -28 170 -15 183 26 26 5 102 -39 142 -31 28 -60
93 -60 137 0 38 -36 163 -53 186 -14 18 -45 15 -74 -8 -16 -12 -34 -18 -45
-14 -10 3 -40 6 -66 5 -36 0 -51 5 -64 22 -13 17 -30 22 -81 25 l-65 4 -7 -46
c-6 -35 -12 -46 -25 -46 -10 0 -21 8 -25 18 -6 16 -7 16 -19 0 -7 -10 -21 -18
-32 -18 -14 0 -15 -3 -6 -12 6 -6 38 -12 70 -12 33 -1 66 -6 73 -13 8 -6 31
-14 51 -18 20 -4 44 -16 54 -26 17 -19 13 -19 -167 -19 -101 0 -202 -5 -224
-11 -22 -6 -65 -14 -95 -18 -30 -5 -62 -11 -71 -15 -39 -17 -32 32 13 93 10
13 18 40 18 60 0 20 6 47 14 61 7 14 26 48 41 75 15 28 35 59 45 70 9 11 30
39 45 63 15 23 33 42 41 42 16 0 74 33 74 43 0 4 7 7 15 7 18 0 17 -29 -2 -45
-8 -7 -9 -25 -3 -60 4 -27 6 -54 3 -58 -5 -9 15 -37 28 -37 4 0 13 18 19 40 6
24 17 40 25 40 10 0 15 10 15 28 0 16 6 37 14 47 11 16 12 24 2 45 -7 14 -11
33 -9 42 6 26 48 33 79 14 32 -22 40 -44 26 -67 -22 -35 -12 -65 12 -34 6 7
33 22 60 32 68 25 77 42 42 87 -15 20 -32 36 -38 36 -5 0 -23 11 -38 24 -38
32 -107 42 -155 21 -21 -8 -46 -15 -57 -15 -11 0 -38 -13 -61 -29 -23 -15 -64
-40 -90 -55 -36 -21 -49 -35 -54 -58 -8 -39 -123 -195 -161 -219 -22 -12 -29
-23 -25 -37 2 -11 -11 -57 -30 -103 -19 -46 -40 -111 -47 -144 -16 -82 -37
-123 -72 -141 -16 -8 -36 -30 -45 -48 -15 -32 -14 -35 11 -78 30 -52 33 -84 9
-110 -12 -14 -19 -45 -23 -116 -5 -82 -10 -104 -34 -145 -42 -71 -65 -181 -72
-347 -3 -80 -12 -164 -20 -188 -19 -57 -74 -162 -85 -162 -5 0 -23 -25 -40
-55 -36 -64 -30 -62 -234 -68 -125 -4 -150 -8 -229 -35 -49 -18 -98 -39 -108
-49 -11 -9 -41 -29 -68 -43 -51 -26 -200 -179 -200 -204 0 -8 -13 -42 -29 -75
-23 -50 -27 -68 -21 -101 4 -22 5 -81 2 -130 -4 -83 7 -150 27 -150 20 0 40
-73 44 -166 3 -65 11 -112 21 -132 26 -50 21 -78 -16 -93 -18 -7 -46 -26 -64
-41 -17 -15 -48 -35 -68 -43 -20 -8 -66 -48 -103 -87 -38 -40 -86 -91 -109
-113 -22 -23 -43 -48 -46 -56 -3 -8 -2 -56 2 -108 5 -61 5 -103 -2 -120 -6
-14 -10 -38 -9 -54 1 -15 -5 -37 -13 -50 -9 -15 -16 -68 -20 -162 -3 -77 -8
-196 -12 -265 l-7 -126 26 -11 c14 -7 33 -25 41 -41 10 -19 26 -31 46 -35 32
-7 42 -26 13 -25 -10 0 -225 -2 -477 -6 -310 -4 -463 -2 -472 5 -9 7 -15 2
-22 -23 -12 -40 -26 -212 -28 -363 -1 -60 -8 -139 -16 -174 -10 -45 -12 -82
-6 -130 5 -41 4 -86 -3 -118 -5 -29 -9 -94 -7 -146 3 -106 -3 -119 -58 -137
-33 -11 -34 -13 -34 -65 0 -35 -6 -60 -17 -74 -17 -21 -25 -22 -158 -19 l-140
3 -3 26 c-2 18 -10 28 -25 32 -12 2 -30 8 -39 12 -15 6 -18 2 -18 -29 0 -42
-18 -54 -59 -40 -51 18 -35 84 20 84 45 0 36 40 -13 59 -20 7 -34 5 -62 -10
-43 -23 -65 -24 -92 -5 -23 17 -74 23 -92 13 -6 -5 -12 -21 -12 -36 0 -34 -17
-51 -51 -51 -19 0 -30 -6 -34 -21 -12 -38 -57 -46 -251 -45 -153 2 -185 5
-208 19 -14 10 -26 22 -26 27 0 15 -26 12 -40 -5 -17 -20 -42 -19 -114 6 -90
31 -111 72 -62 118 20 19 23 27 14 41 -9 14 -6 26 12 55 22 36 23 47 24 219
l1 181 30 5 c25 4 30 10 33 38 3 32 -2 36 -40 33 -12 -2 -19 9 -24 36 -10 56
-20 70 -58 83 -64 21 -97 -19 -112 -137 -6 -46 -11 -55 -37 -68 -16 -8 -33
-15 -38 -15 -4 0 -10 23 -14 52 -4 29 -16 64 -27 79 -28 37 -34 101 -14 143 9
19 16 37 16 41 0 19 46 67 75 80 45 18 52 49 30 127 -19 70 -15 95 24 140 24
29 29 47 40 138 12 103 30 154 59 176 11 8 13 17 5 40 -11 33 -49 43 -96 25
-27 -11 -27 -11 -12 -41 15 -29 15 -32 -5 -60 -13 -18 -36 -34 -61 -40 -56
-15 -87 -72 -65 -120 5 -13 -1 -16 -30 -16 -58 0 -85 -60 -49 -110 11 -17 12
-29 4 -58 -18 -66 -9 -99 34 -119 20 -9 37 -24 37 -32 0 -20 -73 -158 -123
-230 -97 -143 -299 -364 -334 -366 -41 -3 -62 9 -63 35 0 5 35 44 79 88 86 86
173 208 220 307 30 64 30 67 30 225 0 176 10 225 68 323 15 26 35 62 43 78 10
20 43 47 98 79 93 55 95 70 10 82 -43 6 -49 4 -104 -37 -33 -24 -61 -48 -63
-53 -2 -5 -18 -25 -36 -45 -18 -20 -38 -54 -45 -76 -7 -22 -18 -53 -25 -70 -7
-16 -16 -55 -19 -84 -10 -98 7 -93 -378 -95 -183 -1 -343 1 -355 5 -25 9 -40
50 -49 139 l-6 65 57 -55 c31 -30 64 -62 73 -71 25 -24 112 -31 170 -14 33 10
60 27 85 55 19 22 39 40 44 40 11 0 39 63 48 109 4 21 14 35 26 38 11 3 23 20
29 42 17 62 12 98 -18 133 -16 18 -48 66 -71 106 -23 40 -62 95 -87 123 -48
54 -53 78 -28 128 9 18 18 69 21 114 5 70 11 91 40 141 18 32 51 79 73 105 22
26 43 62 46 81 4 19 13 44 21 55 9 13 13 54 13 130 0 114 -19 195 -69 293 -36
71 -132 147 -265 211 -111 54 -128 59 -204 63 -49 3 -87 10 -91 17 -4 6 -8 63
-9 127 -1 63 -6 123 -12 134 -14 26 -85 67 -139 79 -35 7 -51 6 -72 -5 -16 -8
-36 -14 -47 -14 -10 0 -33 -16 -51 -34 -19 -19 -46 -36 -60 -38 -29 -3 -29 -7
-10 -100 15 -71 4 -88 -74 -113 -29 -9 -68 -28 -89 -41 -51 -35 -99 -30 -112
11 -11 39 -62 165 -97 240 -15 33 -32 80 -39 105 -6 25 -22 61 -35 80 -24 37
-41 148 -29 194 6 26 68 59 137 71 41 8 42 9 25 31 -56 69 -85 79 -139 47 -28
-17 -41 -41 -54 -97 -3 -16 -19 -41 -36 -57 -19 -18 -29 -37 -29 -56 1 -40 46
-165 64 -179 9 -6 21 -35 27 -65 6 -30 16 -58 23 -64 25 -21 68 -141 74 -205
6 -79 24 -110 63 -110 61 0 57 -65 -6 -106 -14 -9 -25 -22 -25 -28 0 -7 -20
-27 -44 -46 -25 -18 -54 -42 -64 -54 -11 -12 -41 -41 -66 -65 -25 -24 -46 -48
-46 -52 0 -4 -16 -27 -36 -51 -44 -51 -64 -94 -98 -209 -58 -191 -8 -407 119
-512 58 -49 124 -87 151 -87 12 0 27 -7 35 -16 9 -11 24 -14 48 -11 20 2 47 0
61 -6 14 -5 60 -11 103 -12 43 -1 83 -7 89 -13 5 -5 17 -44 24 -87 14 -73 14
-77 -6 -111 -12 -19 -30 -34 -40 -34 -22 0 -90 -68 -90 -91 0 -8 -16 -30 -35
-49 -26 -25 -35 -42 -35 -66 0 -43 30 -136 49 -151 21 -18 257 -18 268 0 9 13
69 37 95 37 9 0 21 7 28 15 29 35 70 6 70 -48 0 -16 7 -26 19 -30 21 -5 50
-81 37 -95 -4 -4 -56 -6 -114 -4 -59 2 -278 -2 -487 -8 -577 -15 -2020 -17
-2038 -2 -11 10 -16 56 -21 220 -4 114 -8 1513 -9 3110 0 1596 -5 2902 -9
2902 -4 0 -8 -2425 -8 -5390z m12720 3641 c0 -12 -20 -25 -27 -18 -7 7 6 27
18 27 5 0 9 -4 9 -9z m80 -1 c15 -8 18 -18 14 -48 -9 -61 -12 -66 -29 -52 -8
7 -15 21 -15 32 0 10 -7 21 -15 24 -15 6 -20 35 -8 47 9 10 31 9 53 -3z m-120
-26 c0 -2 -7 -4 -15 -4 -8 0 -15 4 -15 10 0 5 7 7 15 4 8 -4 15 -8 15 -10z
m-40 -108 c0 -11 -19 -15 -25 -6 -3 5 1 10 9 10 9 0 16 -2 16 -4z m-96 -35 c8
-12 149 -22 184 -12 27 8 33 6 47 -15 9 -14 13 -29 10 -34 -10 -16 -33 -12
-44 7 -6 12 -13 14 -23 7 -9 -7 -44 -7 -108 0 -87 10 -95 13 -98 34 -3 22 21
32 32 13z m34 -173 c20 -20 14 -46 -14 -64 -24 -16 -29 -16 -82 2 -49 16 -57
23 -60 47 l-3 27 73 0 c44 0 79 -5 86 -12z m226 -12 c43 -18 45 -28 9 -56 -44
-35 -133 -14 -133 31 0 9 7 25 17 34 18 18 48 16 107 -9z m-3616 -82 c11 -31
18 -62 15 -70 -6 -16 -29 -19 -37 -5 -3 5 -25 18 -49 29 -36 17 -43 24 -42 49
2 30 32 53 71 53 17 0 26 -12 42 -56z m3772 41 c16 -19 9 -49 -12 -53 -19 -4
-42 33 -34 54 7 18 30 18 46 -1z m-2163 -45 c14 -28 2 -50 -27 -50 -30 0 -45
27 -31 56 14 31 41 28 58 -6z m1821 -36 c186 -5 225 -14 242 -57 4 -12 18 -47
31 -77 20 -48 22 -73 23 -203 1 -145 0 -149 -23 -168 -31 -25 -35 -25 -82 18
-51 47 -73 38 -77 -31 -3 -39 -6 -46 -24 -46 -12 0 -37 19 -60 45 -45 51 -80
58 -143 28 -32 -15 -38 -15 -67 -1 -39 18 -62 12 -102 -31 -17 -17 -33 -31
-37 -31 -5 0 -9 28 -11 61 -4 80 -24 97 -66 56 -33 -32 -48 -34 -61 -8 -9 16
9 123 35 209 7 25 41 12 54 -20 29 -79 26 -76 83 -83 70 -9 109 0 136 31 20
23 23 24 51 9 16 -8 49 -28 73 -45 25 -16 55 -30 68 -30 27 0 79 46 79 70 0 9
10 22 23 29 14 7 35 39 51 77 l29 65 -22 23 c-25 27 -82 46 -136 46 -20 0 -68
7 -106 17 -55 13 -74 14 -94 5 -36 -17 -225 -16 -225 1 1 38 64 61 145 50 22
-2 118 -7 213 -9z m-3690 -166 l-3 -63 -170 -7 c-93 -3 -178 -4 -187 -2 -10 3
-23 23 -30 46 -23 76 -1 84 245 86 l148 2 -3 -62z m269 26 c69 -22 86 -32 103
-59 21 -34 26 -60 12 -69 -15 -9 -209 14 -246 29 -36 15 -40 22 -37 60 4 57
10 65 49 65 20 0 74 -12 119 -26z m1694 8 c47 -39 -18 -87 -78 -58 -38 18 -42
39 -11 60 30 21 61 20 89 -2z m-205 -6 c10 -27 -15 -57 -44 -54 -50 6 -36 68
15 68 13 0 26 -6 29 -14z m432 -35 c2 -12 -2 -29 -9 -37 -22 -27 -129 7 -129
41 0 18 16 27 60 35 42 8 74 -8 78 -39z m-2679 20 c12 -8 12 -16 1 -55 -15
-54 -13 -52 -65 -60 -84 -14 -95 46 -18 98 40 27 59 31 82 17z m4253 -13 c22
-10 32 -49 24 -83 -6 -22 -12 -25 -49 -25 -24 0 -50 6 -59 13 -23 18 -29 57
-12 88 12 25 18 28 47 22 17 -3 40 -10 49 -15z m-273 -9 c36 -17 42 -24 39
-47 -2 -21 -9 -28 -30 -30 -22 -3 -32 3 -48 30 -20 34 -26 68 -12 68 5 0 27
-9 51 -21z m-1155 -13 c9 -13 7 -20 -8 -31 -32 -24 -62 15 -34 43 15 15 28 11
42 -12z m-231 -77 c26 -5 67 -9 90 -9 53 0 60 -6 75 -56 23 -78 12 -311 -15
-321 -24 -9 -84 30 -98 65 -14 32 -28 38 -73 26 -38 -11 -25 -48 18 -54 22 -3
36 -11 38 -22 5 -25 -17 -98 -29 -98 -6 0 -38 16 -70 36 l-59 37 -38 -17 c-29
-13 -44 -15 -65 -7 -31 12 -82 -3 -106 -32 -32 -39 -57 -3 -49 69 4 30 0 38
-19 47 -18 8 -27 7 -41 -6 -35 -32 -62 -16 -62 36 1 31 37 107 51 107 11 0 58
-36 122 -94 37 -34 95 -40 124 -13 11 9 33 17 49 17 16 0 34 4 41 8 18 12 33
59 33 106 0 59 18 80 59 71 38 -8 57 -35 66 -92 16 -98 75 -69 75 37 0 79 -11
87 -135 96 -146 11 -185 10 -230 -4 -22 -7 -69 -12 -105 -10 -56 3 -65 6 -68
23 -6 41 22 60 95 66 84 7 262 1 326 -12z m-1877 -70 c72 -22 88 -83 88 -346
1 -216 -1 -218 -118 -106 l-64 62 -24 -18 c-32 -25 -95 -43 -138 -39 -34 3
-35 5 -43 53 -5 28 -11 60 -13 72 -6 31 -41 52 -93 55 -43 3 -45 2 -59 -34
-20 -50 -10 -80 35 -106 56 -33 96 -68 89 -80 -3 -5 -46 -13 -96 -16 -84 -7
-93 -10 -138 -45 -42 -34 -101 -96 -161 -171 -25 -31 -46 -21 -79 38 -24 43
-25 50 -23 243 1 103 4 128 16 133 10 4 20 -6 30 -30 8 -20 26 -49 40 -66 14
-17 35 -48 46 -69 l20 -39 57 5 c114 11 125 16 139 65 18 60 5 69 -51 36 -24
-14 -51 -26 -60 -26 -22 0 -46 40 -46 78 0 44 -34 77 -88 86 -49 7 -51 16 -25
96 17 53 17 53 -5 68 -28 18 -28 56 -2 82 20 20 31 22 105 21 22 0 58 4 80 8
50 12 539 3 581 -10z m3912 -62 c2 -37 0 -47 -12 -47 -19 0 -31 41 -22 76 10
40 31 22 34 -29z m-2273 6 c0 -7 10 -20 23 -28 30 -22 31 -80 1 -96 -26 -13
-89 -5 -101 13 -11 19 -10 66 3 73 5 4 14 18 20 32 6 18 15 24 32 21 12 -2 22
-9 22 -15z m1235 -422 c0 -34 -6 -56 -20 -72 -19 -24 -19 -24 -20 -2 0 34 23
123 32 123 4 0 8 -22 8 -49z m-2932 -47 c4 -39 -10 -50 -75 -57 -38 -4 -55 -2
-63 8 -19 22 -4 45 28 45 16 0 37 9 47 20 28 30 59 22 63 -16z m4001 -118 c14
-17 11 -66 -4 -69 -5 -1 -12 9 -13 23 -2 14 -8 30 -13 36 -9 11 -2 24 11 24 4
0 13 -6 19 -14z m-4019 -25 c0 -5 -6 -14 -14 -20 -16 -13 -32 2 -21 19 8 12
35 13 35 1z m2916 -65 c-3 -14 -11 -26 -17 -26 -17 0 -22 30 -8 62 12 30 13
30 22 10 5 -11 7 -32 3 -46z m-3378 -134 c2 -6 -4 -15 -13 -18 -19 -8 -95 13
-95 25 0 13 103 7 108 -7z m4492 -48 c0 -19 -4 -34 -9 -34 -10 0 -23 58 -15
71 11 18 24 -2 24 -37z m-4382 -43 c16 -51 15 -72 -4 -99 -12 -17 -24 -22 -47
-20 -26 2 -32 9 -40 37 -11 43 4 81 41 104 37 23 37 22 50 -22z m4132 -77 c0
-8 -9 -14 -20 -14 -21 0 -24 8 -14 34 5 13 9 14 20 5 8 -6 14 -18 14 -25z
m454 17 c8 -12 -21 -34 -33 -27 -6 4 -8 13 -4 21 6 17 29 20 37 6z m-4730 -83
c14 -23 5 -30 -49 -34 -50 -3 -68 13 -44 42 16 20 78 15 93 -8z m3713 -24 c-3
-3 -12 -4 -19 -1 -8 3 -5 6 6 6 11 1 17 -2 13 -5z m493 -551 c-1 -24 -2 -26
-11 -10 -5 9 -7 22 -4 27 10 17 15 11 15 -17z m-9831 -62 c19 -6 50 -21 70
-35 20 -13 54 -27 76 -31 68 -12 137 -80 191 -189 l46 -93 1 -111 c0 -109 0
-111 -40 -195 -39 -81 -80 -126 -102 -113 -5 3 -22 27 -37 54 -38 64 -74 92
-74 55 0 -9 7 -24 16 -34 11 -12 13 -27 8 -53 -8 -44 -26 -64 -62 -71 -15 -3
-41 -10 -58 -15 -17 -6 -38 -10 -47 -10 -19 0 -47 48 -47 80 0 11 -7 20 -15
20 -21 0 -29 24 -15 49 6 13 21 21 36 21 14 0 35 5 47 12 12 7 47 15 77 18
l55 5 3 40 c2 22 8 46 14 53 6 7 9 15 6 17 -7 7 -94 -31 -130 -57 -31 -22 -83
-26 -116 -10 -9 5 -34 12 -55 15 -36 6 -40 3 -59 -28 -26 -45 -82 -63 -243
-76 -144 -12 -168 -16 -160 -30 4 -5 15 -7 26 -4 13 5 28 -3 50 -24 28 -28 30
-34 23 -77 -3 -25 -8 -71 -9 -102 -1 -32 -10 -77 -20 -102 l-16 -45 38 -30
c21 -16 55 -48 75 -70 44 -47 48 -41 12 21 -28 48 -28 94 2 139 13 20 112 65
142 65 7 0 30 -16 52 -36 49 -45 70 -41 90 15 18 53 30 59 56 30 16 -18 19
-34 16 -106 -2 -73 -6 -90 -27 -118 -33 -42 -32 -82 3 -118 25 -26 27 -34 25
-100 -1 -50 3 -79 13 -95 10 -16 12 -31 6 -55 l-8 -32 -90 -6 c-89 -6 -149
-23 -284 -86 -30 -14 -68 -31 -85 -38 -16 -7 -55 -25 -86 -39 -67 -31 -91 -26
-127 31 l-24 36 21 28 c12 15 21 33 21 39 0 19 122 141 155 155 36 15 95 67
95 83 0 7 -11 12 -25 12 -46 0 -75 52 -75 139 0 20 -9 51 -21 70 -20 33 -20
33 -82 28 -108 -8 -234 10 -306 44 -123 57 -176 117 -207 236 -25 97 -13 213
35 336 34 87 157 234 223 268 21 11 53 33 72 49 18 17 50 37 69 45 20 8 58 28
84 45 32 21 60 30 88 30 22 0 51 7 63 16 50 35 178 53 352 49 91 -2 180 -8
199 -14z m4471 -41 c0 -12 -28 -25 -36 -17 -9 9 6 27 22 27 8 0 14 -5 14 -10z
m5347 -12 c-3 -8 -6 -5 -6 6 -1 11 2 17 5 13 3 -3 4 -12 1 -19z m12 -137 c-15
-94 -28 -94 -29 1 0 107 8 134 25 85 8 -24 10 -53 4 -86z m-641 -5 c2 -16 -1
-33 -7 -39 -8 -8 -11 -5 -11 9 0 10 -3 30 -7 43 -4 18 -2 23 8 19 8 -2 15 -17
17 -32z m-4560 -36 c-21 -29 -48 -40 -48 -21 0 7 57 50 68 51 1 0 -7 -13 -20
-30z m-230 -21 c44 15 72 10 72 -13 0 -21 56 -103 76 -110 24 -9 79 -7 90 4 5
5 25 11 44 12 30 3 36 -1 57 -37 27 -47 29 -90 7 -145 -25 -63 -53 -52 -64 25
-4 35 -8 40 -30 40 -25 0 -25 -1 -24 -77 1 -59 6 -85 22 -113 20 -33 22 -49
20 -218 0 -100 -5 -190 -10 -199 -11 -22 -40 -22 -188 0 -121 18 -159 35 -178
78 -16 34 -15 51 7 98 11 23 27 57 35 76 9 19 27 50 41 69 31 43 32 83 2 113
-32 32 -50 63 -74 133 -40 114 -56 238 -33 261 8 8 23 8 50 1 29 -8 49 -7 78
2z m671 -48 c16 -10 6 -31 -15 -31 -8 0 -14 9 -14 20 0 22 7 25 29 11z m2251
-16 c0 -16 -27 -32 -37 -22 -3 4 -3 13 0 22 8 20 37 20 37 0z m2282 -26 c-5
-46 -13 -55 -29 -34 -16 23 -17 47 -1 63 20 20 33 7 30 -29z m-2132 -38 c0
-18 84 -103 121 -121 72 -37 135 -21 164 43 24 50 45 57 77 24 12 -13 40 -36
61 -51 31 -23 37 -33 37 -63 0 -78 -52 -243 -98 -313 -28 -42 -27 -93 3 -98
29 -6 34 -12 51 -78 25 -97 30 -239 10 -309 -24 -86 -64 -173 -103 -224 -40
-53 -42 -81 -7 -117 26 -25 27 -29 21 -113 -4 -66 -14 -109 -40 -177 -19 -49
-41 -107 -48 -128 -23 -64 -99 -140 -187 -183 l-77 -38 -155 0 c-138 0 -167 3
-265 29 -121 32 -176 61 -205 108 -25 42 -35 124 -21 186 15 71 73 188 120
246 23 26 41 56 41 66 0 10 -17 35 -39 55 -46 44 -88 125 -101 196 -6 29 -10
98 -10 154 0 85 4 114 25 170 37 97 52 122 112 193 57 67 62 82 38 102 -13 11
-22 10 -51 -3 -58 -28 -78 -4 -114 134 -10 40 -9 51 5 78 23 45 38 47 92 12
31 -21 59 -31 84 -31 52 0 124 33 146 67 9 15 20 30 23 33 3 3 16 20 29 38 18
26 27 31 44 26 63 -20 124 2 155 56 14 25 30 40 42 40 11 0 20 -4 20 -9z
m2106 -105 c6 -16 -12 -56 -25 -56 -14 0 -19 23 -10 48 9 25 27 29 35 8z
m-1409 -18 c4 -7 8 -85 9 -173 0 -150 2 -164 28 -229 15 -38 38 -88 52 -111
36 -63 32 -102 -19 -172 -65 -87 -87 -147 -87 -237 0 -125 -7 -132 -143 -141
-49 -3 -59 -1 -68 16 -7 14 -6 26 3 43 7 13 26 47 41 75 l28 52 -11 167 c-7
92 -18 190 -25 217 -24 87 -29 178 -12 211 8 16 22 56 30 88 12 45 27 71 69
116 29 32 59 65 66 74 15 19 28 20 39 4z m-3297 -44 c0 -12 9 -41 19 -65 43
-97 134 -137 202 -88 28 20 69 19 69 -1 0 -5 9 -12 20 -15 25 -8 66 -50 87
-90 9 -16 26 -40 39 -52 19 -18 24 -32 24 -73 0 -73 -13 -92 -54 -84 -29 5
-37 2 -57 -24 -13 -16 -34 -35 -46 -41 -24 -12 -39 -53 -53 -141 -12 -74 15
-143 71 -182 44 -31 51 -58 17 -58 -56 0 -236 76 -289 122 -60 52 -109 129
-133 211 -57 194 -32 519 47 605 23 24 37 15 37 -24z m4525 -7 c7 -46 -16
-140 -41 -167 -17 -17 -17 -15 -18 80 -1 49 3 69 17 82 9 10 17 25 17 33 0 33
19 12 25 -28z m-4355 -27 c0 -5 -9 -10 -20 -10 -11 0 -20 5 -20 10 0 6 9 10
20 10 11 0 20 -4 20 -10z m-741 -105 c5 -26 -28 -85 -49 -85 -9 0 -32 16 -51
36 l-34 35 24 20 c33 27 104 23 110 -6z m1351 -8 c0 -18 -27 -53 -35 -46 -7 8
15 59 27 59 4 0 8 -6 8 -13z m1105 -52 c6 -22 18 -53 27 -70 10 -16 27 -49 38
-73 l21 -43 -31 -49 c-17 -26 -43 -83 -57 -126 -24 -71 -27 -92 -25 -214 1
-154 -2 -170 -29 -170 -11 0 -34 -7 -51 -16 -53 -27 -160 -61 -253 -79 -141
-28 -305 -10 -305 34 0 20 49 51 80 51 12 0 39 17 60 38 30 30 39 47 45 89 8
58 -1 191 -16 240 -20 63 -99 104 -129 68 -7 -9 -23 -15 -34 -13 -18 3 -21 11
-24 61 -4 69 3 79 73 112 29 14 70 45 93 70 22 25 46 45 53 45 6 0 31 -21 56
-46 80 -80 106 -82 182 -9 31 30 73 61 93 70 20 8 46 28 58 45 31 44 62 38 75
-15z m-275 16 c0 -17 -27 -37 -37 -27 -7 7 17 46 27 46 6 0 10 -9 10 -19z
m-6645 -5 c31 -13 35 -19 35 -54 0 -49 -14 -66 -70 -81 -25 -8 -65 -24 -90
-37 -25 -13 -59 -24 -75 -24 -17 0 -36 -5 -42 -11 -17 -17 -50 -1 -63 31 -14
34 -6 107 15 136 9 13 40 24 97 35 107 21 151 22 193 5z m5924 -118 c20 -32
31 -38 70 -43 98 -13 112 -31 102 -140 -6 -75 -5 -74 -68 -60 -29 7 -37 3 -73
-33 -28 -28 -40 -48 -40 -69 0 -16 -6 -38 -14 -49 -45 -61 -60 140 -18 252 26
72 21 96 -17 92 -20 -2 -31 -14 -49 -51 -25 -52 -41 -64 -68 -49 -12 7 -30 5
-58 -4 -50 -18 -61 -8 -61 52 0 37 5 50 25 66 21 17 34 20 89 14 63 -5 63 -5
94 30 17 19 38 33 47 32 8 -2 26 -20 39 -40z m-5541 -20 c24 -24 9 -196 -19
-223 -28 -26 -55 -26 -93 0 -20 14 -46 25 -57 25 -25 0 -75 34 -89 60 -18 34
31 130 67 130 7 0 20 -12 30 -27 36 -60 74 -62 88 -6 12 50 45 69 73 41z
m3868 -210 l39 -13 -1 -70 c0 -39 -4 -113 -9 -166 -7 -90 -6 -98 14 -126 28
-37 16 -75 -31 -99 -18 -9 -44 -25 -58 -35 -33 -24 -139 -35 -162 -17 -24 18
-38 100 -38 224 0 87 4 115 30 189 16 48 37 98 46 112 15 24 20 25 73 20 32
-4 75 -12 97 -19z m1218 -41 c60 -60 95 -73 135 -53 16 9 45 34 62 56 68 84
110 23 87 -125 -11 -72 -35 -103 -66 -86 -11 6 -24 20 -27 31 -3 11 -27 34
-51 51 -58 40 -79 35 -150 -36 -30 -30 -61 -55 -68 -55 -37 0 -55 74 -37 147
13 51 47 113 62 113 5 0 29 -19 53 -43z m-5259 -2 c92 -41 178 -131 235 -245
26 -51 43 -187 33 -260 -4 -36 -15 -54 -52 -92 -52 -52 -87 -65 -140 -52 -30
7 -41 18 -65 63 -25 46 -30 70 -37 169 -4 64 -5 120 -2 124 7 13 -25 117 -56
178 -16 30 -31 67 -35 81 -5 24 -2 29 32 42 20 8 39 14 42 13 3 -2 23 -11 45
-21z m6142 -31 c25 -25 26 -27 19 -126 -12 -168 -28 -181 -116 -92 l-54 56 18
31 c11 18 30 55 44 82 41 85 49 89 89 49z m-270 -76 c29 -29 53 -58 53 -66 0
-17 -126 -142 -144 -142 -25 0 -38 28 -33 72 6 46 26 155 32 176 8 25 41 11
92 -40z m-186 -235 c31 -36 127 -111 206 -162 86 -55 327 -77 490 -46 102 20
264 94 290 133 9 12 20 22 25 22 14 0 48 -40 48 -55 0 -7 13 -32 30 -56 30
-45 38 -87 20 -105 -11 -11 -16 -19 -75 -122 -38 -66 -67 -80 -200 -93 -101
-10 -743 -7 -960 4 -206 11 -441 45 -575 84 -66 19 -108 60 -134 134 -31 86
-8 209 46 243 13 8 27 5 60 -11 100 -49 147 -58 284 -57 l131 0 119 61 c65 33
129 61 140 62 14 1 34 -13 55 -36z m-1376 7 c12 -19 94 -33 270 -44 l180 -11
-3 -94 c-3 -97 14 -177 43 -201 7 -6 19 -34 25 -62 17 -68 0 -147 -35 -168
-53 -33 -174 -162 -198 -213 -60 -127 -60 -127 -55 -202 5 -71 30 -135 54
-135 6 0 29 -13 52 -29 31 -24 41 -38 47 -70 9 -53 37 -87 94 -114 58 -28 65
-56 25 -98 -15 -16 -36 -29 -47 -29 -27 0 -87 63 -87 92 0 28 -17 48 -42 48
-24 0 -38 -30 -38 -83 0 -49 -12 -64 -57 -73 -32 -6 -79 12 -103 41 -8 10 -17
47 -21 83 -5 46 -12 70 -25 79 -26 19 -32 17 -51 -24 -24 -48 -38 -51 -58 -12
-30 57 -15 223 24 266 86 96 101 140 62 189 -12 15 -21 32 -21 38 0 11 -5 22
-58 116 -45 82 -57 133 -66 275 -5 79 -2 106 25 214 30 121 30 125 14 167 -9
24 -14 48 -10 54 8 13 52 13 60 0z m3580 -179 c3 -11 15 -21 27 -23 22 -3 47
-33 36 -43 -8 -8 -73 22 -88 40 -11 13 -4 45 10 45 5 0 11 -9 15 -19z m-8099
-26 c3 -14 4 -32 0 -40 -3 -9 0 -32 8 -53 7 -20 19 -68 26 -107 6 -38 16 -97
22 -130 15 -85 15 -97 1 -102 -15 -5 -43 56 -62 132 -7 27 -26 69 -42 93 -17
25 -33 59 -36 76 -3 17 -12 51 -20 75 -21 65 -12 76 69 80 22 1 29 -4 34 -24z
m9712 -80 c6 -3 12 -14 12 -25 0 -11 7 -20 15 -20 21 0 34 -30 38 -96 6 -80
-19 -123 -71 -124 -27 0 -39 26 -24 51 18 28 15 64 -9 109 -19 36 -25 41 -46
35 -14 -3 -30 -2 -36 3 -15 12 -212 22 -228 12 -8 -5 -10 -38 -8 -106 5 -113
-3 -122 -65 -82 -38 24 -50 52 -61 143 -8 69 9 98 60 105 44 6 403 1 423 -5z
m-1470 -70 c10 -10 -13 -39 -44 -54 -78 -38 -70 -37 -84 -11 -8 16 -7 27 6 50
10 16 25 31 33 33 19 4 80 -8 89 -18z m200 -214 c13 -3 -14 -21 -31 -21 -12 0
-61 -14 -109 -31 -68 -25 -88 -36 -88 -50 0 -20 -15 -25 -25 -9 -11 18 34 70
61 70 17 0 27 8 34 25 9 25 12 25 82 21 40 -2 74 -5 76 -5z m2017 -116 c11 -1
18 -5 15 -10 -6 -10 -110 -16 -110 -6 0 18 27 31 50 25 14 -4 34 -8 45 -9z
m-5275 -5 c0 -5 -7 -10 -15 -10 -8 0 -15 5 -15 10 0 6 7 10 15 10 8 0 15 -4
15 -10z m3394 -11 c32 -25 32 -34 2 -104 -17 -37 -33 -58 -50 -65 -30 -11 -52
-5 -60 17 -13 33 -17 120 -7 146 9 23 16 27 49 27 25 0 49 -8 66 -21z m1970
-25 c22 -21 20 -31 -9 -50 -31 -20 -45 -11 -45 32 0 27 4 34 19 34 11 0 27 -7
35 -16z m782 -52 c-15 -15 -16 -15 -17 3 -2 32 2 50 14 57 19 12 21 -42 3 -60z
m-6334 3 c-12 -22 -27 -2 -18 22 5 12 10 13 17 6 7 -7 8 -17 1 -28z m5888 -5
c0 -5 -4 -10 -10 -10 -5 0 -10 5 -10 10 0 6 5 10 10 10 6 0 10 -4 10 -10z
m-2910 -37 c0 -7 -4 -13 -9 -13 -10 0 -21 36 -13 45 7 7 22 -15 22 -32z m300
-2 c0 -10 12 -26 26 -36 18 -12 23 -20 16 -27 -16 -16 -39 -3 -62 34 -25 41
-25 48 0 48 13 0 20 -7 20 -19z m2709 2 c23 -15 23 -17 6 -30 -38 -27 -83 -7
-64 29 12 22 28 23 58 1z m-4089 -18 c-7 -9 -15 -13 -18 -10 -3 2 1 11 8 20 7
9 15 13 18 10 3 -2 -1 -11 -8 -20z m4430 10 c0 -8 -4 -15 -10 -15 -5 0 -10 7
-10 15 0 8 5 15 10 15 6 0 10 -7 10 -15z m-644 -48 c2 -37 -1 -52 -16 -67 -25
-25 -25 -30 -1 -30 14 0 21 -10 26 -37 5 -30 3 -39 -18 -57 -13 -12 -31 -33
-41 -48 -14 -24 -23 -28 -61 -28 -28 0 -50 6 -61 17 -16 16 -15 18 12 30 16 7
41 12 57 13 32 0 34 9 7 43 l-20 26 21 15 c19 13 22 26 24 84 3 82 8 94 43 90
23 -3 26 -8 28 -51z m-1588 16 c5 -10 13 -39 16 -65 7 -47 8 -47 62 -65 47
-14 61 -15 105 -4 27 7 53 10 57 7 3 -4 9 -40 13 -80 4 -40 16 -91 27 -112 25
-48 90 -117 128 -136 39 -18 43 -56 10 -96 -25 -29 -54 -108 -76 -205 -5 -26
-24 -66 -40 -89 -18 -25 -30 -53 -30 -72 l0 -31 19 24 c23 30 53 24 65 -12 19
-52 -1 -78 -79 -103 -57 -18 -94 -23 -195 -23 -128 -1 -281 13 -335 30 -46 14
-66 57 -72 152 l-5 82 20 -35 c12 -19 25 -45 31 -57 12 -25 39 -31 47 -10 3 8
-6 44 -21 82 -14 37 -25 83 -25 102 0 51 -16 75 -48 71 -24 -3 -27 1 -34 37
-19 109 7 227 70 314 18 24 32 48 32 53 0 22 88 138 148 196 68 64 95 75 110
45z m-312 -47 c35 -35 40 -51 25 -75 -7 -11 -13 -11 -32 3 -29 20 -58 20 -83
1 -27 -20 -43 -19 -49 4 -6 25 27 79 56 91 37 15 47 12 83 -24z m1604 9 c6 -8
10 -22 8 -32 -5 -25 -51 -25 -56 0 -8 42 23 63 48 32z m158 -21 c-5 -26 -38
-31 -38 -7 0 24 21 46 33 34 5 -5 7 -17 5 -27z m-2711 -7 c-6 -20 -36 -32 -47
-21 -8 8 -7 16 5 27 16 17 48 12 42 -6z m-7633 -11 c6 -10 23 -31 39 -46 15
-16 27 -35 27 -42 0 -7 20 -54 45 -102 25 -49 45 -97 45 -106 0 -9 -13 -29
-30 -45 -25 -24 -32 -26 -45 -15 -11 9 -14 21 -10 34 9 30 6 110 -5 114 -5 2
-12 20 -16 40 -3 20 -17 48 -29 62 -13 14 -27 37 -30 52 -4 15 -13 32 -21 39
-19 16 -18 41 2 37 9 -2 22 -11 28 -22z m-136 -41 c7 -14 12 -31 12 -38 0 -7
11 -34 25 -62 30 -62 31 -71 3 -79 -27 -7 -47 15 -49 53 -1 14 -2 33 -3 41 -1
8 -9 29 -19 47 -9 18 -17 39 -17 48 0 25 36 17 48 -10z m4828 -51 c-4 -14 -12
-24 -19 -21 -17 5 -21 45 -6 63 11 14 14 13 22 -1 5 -9 6 -28 3 -41z m6317 50
c7 -7 -13 -54 -23 -54 -13 0 -18 38 -7 49 12 12 21 14 30 5z m-3233 -59 c0 -8
10 -20 23 -26 28 -15 86 -80 87 -97 0 -8 -9 -26 -20 -42 -10 -15 -22 -46 -26
-69 -4 -25 -12 -41 -20 -41 -8 0 -14 3 -14 8 0 4 -20 31 -45 59 -37 42 -56 55
-100 68 -55 16 -82 42 -71 71 3 8 12 14 20 14 36 0 97 34 112 61 12 25 18 28
34 19 11 -6 20 -17 20 -25z m2185 -35 c18 -19 51 -37 82 -46 31 -9 57 -24 64
-35 14 -26 103 -82 155 -97 23 -7 64 -12 93 -12 50 0 51 -1 51 -29 0 -41 -48
-123 -149 -255 -9 -12 -58 -61 -109 -111 -51 -49 -92 -98 -92 -108 0 -25 26
-32 53 -14 41 27 64 -12 52 -88 -9 -66 -47 -96 -173 -140 -156 -53 -163 -55
-324 -55 -134 0 -152 2 -201 24 -58 26 -87 57 -87 94 0 13 -5 32 -11 44 -18
34 -5 29 37 -12 21 -22 47 -39 57 -40 9 0 17 2 17 4 0 8 -62 151 -69 158 -3 3
-15 8 -26 10 -36 6 -65 51 -65 102 0 80 39 206 83 270 33 47 80 96 92 96 14 0
76 60 129 124 36 44 42 47 70 40 79 -19 142 4 181 66 30 48 51 50 90 10z m807
8 c5 -15 -15 -75 -30 -90 -7 -7 -12 -17 -12 -24 0 -11 -29 -28 -36 -21 -2 2 6
28 17 58 11 30 23 62 26 72 6 19 29 23 35 5z m-9603 -52 c27 -49 31 -67 37
-164 7 -108 7 -110 -18 -135 -36 -36 -90 -44 -135 -21 -60 32 -67 85 -29 204
13 41 27 90 31 107 7 34 37 63 66 63 10 0 30 -22 48 -54z m5765 38 c42 -14 53
-15 89 -3 49 16 73 14 106 -12 33 -26 87 -24 136 6 44 27 75 31 108 13 12 -6
38 -10 59 -10 33 2 40 -2 54 -31 9 -17 32 -48 51 -68 47 -50 62 -97 51 -162
-5 -29 -21 -69 -34 -89 -30 -43 -29 -82 2 -86 11 -2 41 6 67 17 l47 20 0 75
c0 83 6 106 26 106 14 0 54 -81 54 -111 0 -10 -10 -48 -21 -84 -17 -50 -29
-69 -53 -84 -54 -32 -102 -43 -161 -36 -47 6 -61 14 -100 51 -46 46 -63 52
-83 32 -19 -19 -14 -45 13 -74 51 -55 19 -96 -78 -101 -78 -4 -160 33 -194 87
-41 66 -59 84 -77 77 -15 -6 -16 -15 -10 -67 6 -58 6 -60 -16 -60 -80 0 -174
66 -211 149 -27 61 -27 241 0 322 47 139 73 157 175 123z m4053 -26 c-3 -7 -5
-2 -5 12 0 14 2 19 5 13 2 -7 2 -19 0 -25z m-2733 3 c12 -13 14 -21 6 -26 -16
-10 -60 3 -60 19 0 31 29 35 54 7z m251 -11 c-10 -11 -20 -18 -23 -15 -3 3 3
14 13 25 10 11 20 18 23 15 3 -3 -3 -14 -13 -25z m-434 -7 c21 -52 26 -58 80
-91 l54 -34 105 7 c141 9 143 7 135 -67 -4 -32 -1 -129 6 -214 15 -180 16
-175 -76 -200 -153 -41 -335 -46 -387 -12 -27 17 -60 111 -74 203 -11 81 -5
203 12 243 9 21 24 58 34 84 37 97 90 135 111 81z m-7789 -22 c42 -38 42 -38
19 -51 -33 -17 -67 -5 -81 30 -13 31 -8 60 10 60 6 0 29 -17 52 -39z m10690
-23 c-7 -7 -12 -8 -12 -2 0 14 12 26 19 19 2 -3 -1 -11 -7 -17z m-10573 -106
c58 -57 96 -219 69 -297 -18 -56 -41 -57 -57 -3 -19 63 -71 137 -110 158 -33
17 -36 17 -70 -3 -20 -11 -43 -26 -51 -33 -31 -25 -91 -54 -113 -54 -38 0 -67
29 -103 106 -38 80 -43 136 -12 142 13 3 27 -16 55 -72 42 -86 62 -99 102 -67
14 12 37 27 51 33 14 7 45 27 69 45 24 18 49 33 55 33 6 0 22 9 36 20 34 26
47 25 79 -8z m5022 -75 c-8 -8 -11 -5 -11 9 0 27 14 41 18 19 2 -9 -1 -22 -7
-28z m-396 -153 l30 -35 67 10 c46 6 78 17 101 35 45 34 73 33 92 -3 18 -37
47 -47 86 -30 37 15 49 5 88 -72 32 -64 96 -116 153 -126 57 -9 74 -29 82 -99
7 -64 42 -180 57 -189 5 -4 9 -24 9 -45 0 -33 -7 -46 -45 -84 -59 -61 -58 -76
5 -78 40 -1 59 -23 38 -44 -33 -33 -364 -60 -523 -42 -80 9 -213 55 -247 86
-22 19 -23 55 -3 72 22 18 18 57 -10 118 -14 30 -25 62 -25 73 0 10 -7 33 -15
51 -8 18 -24 84 -36 146 -22 119 -21 240 3 324 l11 37 26 -35 c14 -20 40 -51
56 -70z m985 34 c0 -16 -3 -19 -11 -11 -6 6 -8 16 -5 22 11 17 16 13 16 -11z
m330 0 c0 -7 -4 -19 -9 -27 -11 -17 -23 1 -15 23 7 19 24 21 24 4z m-6418 -45
c9 -10 18 -27 20 -38 2 -11 21 -30 43 -42 51 -29 113 -30 148 -3 14 11 28 20
32 20 4 0 18 9 32 20 14 11 30 20 34 20 13 0 5 -115 -9 -133 -34 -40 -322 -16
-339 29 -3 8 0 26 7 39 8 14 11 40 7 64 -6 44 1 51 25 24z m6598 -19 c9 -7 45
-14 80 -16 l65 -3 35 -52 c41 -61 122 -128 176 -145 51 -17 54 -42 14 -115
-18 -32 -35 -60 -39 -63 -4 -3 -17 -21 -29 -41 -12 -19 -48 -64 -81 -100 -61
-65 -76 -104 -45 -116 8 -3 20 -1 27 6 15 15 60 14 75 -1 7 -7 12 -22 12 -34
0 -26 -36 -74 -55 -74 -8 0 -30 -10 -50 -21 -20 -12 -51 -22 -68 -21 -17 0
-70 -9 -117 -20 -59 -14 -132 -22 -238 -26 -164 -5 -249 6 -310 38 -59 32 -67
61 -27 108 30 36 31 55 6 79 -27 25 -87 142 -122 237 -22 61 -29 97 -29 152
l0 72 50 54 50 53 30 -37 c36 -43 90 -62 148 -52 27 5 50 20 84 56 l47 49 33
-29 c65 -57 114 -47 190 38 47 52 54 54 88 24z m-5412 -32 c2 -7 -3 -12 -12
-12 -9 0 -16 7 -16 16 0 17 22 14 28 -4z m4502 8 c0 -5 -7 -10 -16 -10 -8 0
-12 5 -9 10 3 6 10 10 16 10 5 0 9 -4 9 -10z m2215 0 c-3 -5 -11 -10 -16 -10
-6 0 -7 5 -4 10 3 6 11 10 16 10 6 0 7 -4 4 -10z m-5757 -109 c4 -27 -24 -61
-49 -61 -21 0 -39 28 -39 60 0 44 82 44 88 1z m-2070 -120 c35 -4 95 -3 134 1
61 8 73 6 90 -9 18 -16 20 -28 16 -88 -5 -71 -17 -103 -71 -187 -24 -38 -39
-50 -78 -63 -27 -9 -51 -21 -55 -26 -3 -5 -7 -64 -9 -132 -2 -67 -9 -144 -15
-172 -5 -27 -13 -206 -17 -397 -7 -404 -11 -383 88 -413 35 -10 73 -25 84 -32
11 -7 41 -13 67 -13 48 0 48 0 48 -34 0 -52 -20 -61 -119 -59 -145 4 -211 13
-231 33 -16 16 -17 36 -14 241 4 200 13 447 31 860 l6 136 -41 52 c-50 63 -62
102 -62 204 0 65 3 80 21 98 14 14 28 19 42 14 12 -3 50 -10 85 -14z m1149
-119 c34 -18 113 -103 113 -121 0 -7 -15 -9 -43 -5 -55 8 -72 -11 -72 -80 0
-45 -3 -51 -22 -54 -17 -2 -26 3 -32 21 -5 13 -21 31 -35 40 -37 25 -59 83
-46 121 13 37 68 96 89 96 9 -1 30 -9 48 -18z m1208 -51 c7 -12 -12 -24 -25
-16 -11 7 -4 25 10 25 5 0 11 -4 15 -9z m-841 -22 c-7 -11 -34 -12 -34 -1 0
14 11 21 26 15 8 -3 11 -9 8 -14z m76 1 c0 -5 -4 -10 -10 -10 -5 0 -10 5 -10
10 0 6 5 10 10 10 6 0 10 -4 10 -10z m680 -10 c0 -13 -28 -25 -38 -16 -3 4 0
11 8 16 20 13 30 12 30 0z m404 -133 c8 -12 7 -21 -5 -33 -15 -14 -18 -14 -33
1 -12 13 -14 21 -5 36 12 23 27 21 43 -4z m-427 -148 c16 -16 5 -177 -14 -208
-23 -36 -33 -10 -33 92 0 108 16 147 47 116z m-642 -31 c2 -13 1 -63 -3 -113
-5 -70 -10 -90 -22 -90 -12 0 -16 19 -18 99 -1 55 0 106 2 113 8 21 35 15 41
-9z m5350 -78 c3 -5 2 -10 -4 -10 -5 0 -13 5 -16 10 -3 6 -2 10 4 10 5 0 13
-4 16 -10z m-815 -154 c0 -8 -4 -18 -10 -21 -5 -3 -10 -4 -10 -1 0 2 -3 11 -6
20 -4 11 -1 16 10 16 9 0 16 -6 16 -14z m17 -82 c-12 -12 -37 5 -30 21 5 15 7
15 21 1 9 -9 13 -18 9 -22z m-4567 -159 c0 -16 -6 -25 -15 -25 -9 0 -15 9 -15
25 0 16 6 25 15 25 9 0 15 -9 15 -25z m890 -80 c0 -19 -20 -29 -32 -17 -15 15
-2 43 17 36 8 -3 15 -12 15 -19z m-1475 -55 c-37 -38 -88 -43 -83 -7 2 18 9
22 40 22 20 0 40 3 44 8 4 4 12 7 18 7 5 0 -3 -13 -19 -30z m815 15 c0 -8 -9
-15 -20 -15 -11 0 -20 7 -20 15 0 8 9 15 20 15 11 0 20 -7 20 -15z m175 -25
c20 16 45 5 45 -20 0 -22 -25 -28 -33 -7 -4 7 -6 6 -6 -4 -1 -14 -27 -28 -53
-29 -10 0 -11 54 -1 63 3 4 12 2 20 -4 10 -9 17 -8 28 1z m-1918 -99 c2 -50
11 -85 29 -121 28 -56 26 -80 -6 -80 -35 0 -60 55 -60 131 0 156 30 212 37 70z
m843 59 c0 -6 -8 -13 -17 -17 -17 -6 -80 -56 -128 -102 -26 -24 -104 -46 -117
-33 -23 23 4 50 90 87 48 21 93 46 100 56 14 20 72 27 72 9z m-1166 -25 c20
-9 36 -22 36 -31 0 -11 -5 -14 -17 -9 -10 4 -60 9 -112 10 -51 2 -98 8 -104
14 -14 14 4 20 78 24 33 2 65 4 71 5 6 1 28 -5 48 -13z m1411 -26 c15 -52 23
-59 64 -59 20 0 41 -4 47 -10 6 -6 25 -4 52 6 48 16 62 12 62 -17 0 -17 -8
-19 -77 -21 -116 -4 -196 1 -207 12 -15 15 -109 12 -150 -5 -71 -30 -33 18 44
55 25 12 52 26 60 31 8 5 25 13 37 18 11 6 24 15 28 21 12 19 29 5 40 -31z
m-1665 6 c0 -8 -4 -15 -10 -15 -5 0 -10 7 -10 15 0 8 5 15 10 15 6 0 10 -7 10
-15z m950 -3 c0 -31 -23 -49 -67 -55 -23 -3 -49 -12 -57 -20 -16 -16 -119 -33
-136 -22 -16 10 -12 62 6 80 12 11 20 13 29 5 7 -6 19 -8 27 -5 8 3 21 -1 28
-10 16 -19 34 -19 51 1 16 19 67 42 97 43 15 1 22 -5 22 -17z m-960 -48 c0 -7
-60 -115 -73 -131 -12 -16 -49 -17 -65 -1 -8 8 -15 8 -28 -3 -12 -10 -53 -14
-153 -16 -119 -2 -142 1 -183 19 -27 12 -48 24 -48 28 0 21 69 34 210 40 85 4
173 12 195 18 22 6 57 14 78 17 21 3 41 13 44 21 5 13 23 20 23 8z m1980 -44
c0 -5 -9 -10 -20 -10 -11 0 -20 5 -20 10 0 6 9 10 20 10 11 0 20 -4 20 -10z
m3695 -20 c0 -19 -4 -24 -20 -22 -28 5 -39 18 -31 37 10 27 51 15 51 -15z
m-5575 -15 c11 -13 9 -24 -10 -64 -23 -50 -21 -85 5 -94 7 -3 36 3 64 14 28
10 69 19 91 19 21 0 51 5 65 12 33 15 45 0 45 -53 0 -62 -48 -85 -205 -95 -82
-6 -92 -5 -117 15 -37 30 -48 74 -33 136 18 78 44 120 76 124 4 1 12 -6 19
-14z m148 -16 c2 -15 -5 -32 -17 -43 -20 -18 -21 -18 -32 7 -8 18 -8 30 1 46
15 29 44 23 48 -10z m772 -31 c0 -26 -2 -29 -15 -18 -15 13 -20 42 -9 53 13
12 24 -4 24 -35z m360 21 c0 -5 -12 -35 -26 -65 -20 -43 -30 -54 -49 -54 -13
0 -27 -5 -30 -10 -7 -11 -85 -53 -90 -48 -1 2 -5 15 -9 30 -9 39 34 84 118
123 80 38 86 39 86 24z m436 -3 c170 -5 204 -14 204 -51 0 -19 -9 -29 -40 -45
-44 -22 -119 -25 -335 -11 -96 7 -122 6 -131 -5 -16 -20 -34 -17 -34 5 0 20
18 31 50 31 10 0 28 12 41 26 28 30 80 65 89 59 4 -2 74 -6 156 -9z m2734
-196 c10 -7 -22 -9 -100 -9 -77 1 -103 4 -80 9 52 11 163 11 180 0z m6366
-124 c18 -14 18 -15 1 -22 -22 -8 -71 12 -62 26 9 14 38 12 61 -4z m508 -15
c3 -5 -13 -11 -37 -13 -46 -5 -67 -1 -67 13 0 12 97 12 104 0z m-1716 -16 c13
-3 20 -10 17 -15 -3 -5 0 -12 7 -17 7 -4 164 -8 348 -9 184 0 344 -2 355 -5
13 -3 23 4 33 24 14 29 52 37 82 17 13 -9 12 -12 -5 -26 -11 -8 -30 -12 -42
-9 -13 3 -23 1 -23 -4 0 -5 -9 -11 -21 -14 -19 -5 -20 -10 -14 -48 11 -62 29
-112 46 -120 8 -5 47 -26 87 -49 61 -35 80 -41 120 -38 41 3 49 7 62 33 15 30
17 30 95 33 66 2 93 -2 148 -23 105 -39 226 -104 243 -131 9 -13 31 -29 50
-36 29 -10 74 -60 74 -80 0 -3 -13 -8 -30 -11 -34 -7 -81 10 -153 58 -78 51
-98 53 -156 16 -27 -18 -52 -38 -54 -46 -7 -17 -55 -7 -132 29 -52 25 -70 28
-198 32 -78 2 -167 9 -197 16 -30 6 -95 11 -145 10 -49 0 -133 6 -185 14 -52
9 -129 17 -170 19 -225 9 -329 18 -360 30 -19 7 -72 16 -118 20 -65 6 -87 12
-103 28 -40 44 -35 45 182 52 180 6 245 18 158 29 -24 3 -131 8 -238 10 -157
5 -198 3 -222 -9 -22 -12 -39 -13 -76 -5 -74 15 -1248 7 -1296 -9 -42 -13
-427 -19 -582 -8 -49 3 -128 6 -175 6 -235 -1 -648 2 -670 5 -14 2 -33 6 -42
10 -10 3 -24 8 -32 10 -9 3 -12 13 -9 25 4 15 -3 24 -27 36 -18 9 -35 13 -39
8 -7 -11 -71 -11 -71 0 0 4 0 16 0 26 0 11 8 22 18 25 10 3 153 8 317 9 280 3
443 11 790 38 231 18 587 28 990 29 209 1 477 7 595 13 206 12 720 12 768 2z
m1929 9 c13 -4 20 -10 17 -15 -6 -11 -58 -12 -105 -2 -28 5 -30 7 -14 14 25 9
73 11 102 3z m-894 -85 c59 -16 197 -116 197 -143 0 -2 -21 -7 -46 -11 -32 -4
-61 -1 -97 11 -82 27 -93 34 -110 70 -9 19 -21 34 -27 34 -17 0 -11 28 8 39
22 13 29 13 75 0z m-5254 -18 c23 -15 -21 -31 -83 -31 -55 0 -81 15 -55 31 18
11 120 11 138 0z m5664 -18 c13 -29 55 -72 71 -73 15 0 56 -42 56 -56 0 -9 -6
-11 -17 -7 -30 11 -113 77 -113 89 0 6 -15 15 -34 18 -45 9 -64 30 -39 45 33
19 63 13 76 -16z m-10088 -24 c33 -5 86 -9 118 -9 31 0 57 -4 57 -10 0 -5 -9
-10 -19 -10 -27 0 -51 -10 -51 -22 0 -6 31 -7 80 -2 76 6 80 6 80 -14 0 -11
-7 -23 -16 -26 -22 -8 -95 -6 -119 4 -13 5 -26 3 -35 -5 -32 -27 -249 -35
-319 -11 -15 5 -39 3 -64 -5 -39 -13 -40 -13 -68 22 -16 18 -29 36 -29 39 0 8
62 30 82 30 9 0 21 6 28 14 20 25 130 27 275 5z m10479 -4 c20 -14 42 -25 49
-25 7 0 22 -7 34 -15 20 -14 22 -14 26 12 3 21 4 18 5 -12 l2 -40 -55 -3 c-53
-2 -57 -1 -90 35 -35 38 -41 53 -28 66 10 11 18 9 57 -18z m-9695 -1 c17 -4
28 -10 25 -15 -7 -12 -134 -12 -134 0 0 16 61 24 109 15z m-544 -14 c4 -6 -5
-10 -20 -10 -15 0 -24 4 -20 10 3 6 12 10 20 10 8 0 17 -4 20 -10z m711 -25
c10 -26 -6 -38 -27 -19 -10 9 -16 21 -13 25 8 14 34 10 40 -6z m2302 -51 c-3
-15 -11 -18 -41 -16 -26 3 -37 -1 -37 -10 -1 -7 -7 -2 -15 12 -17 31 -11 38
40 42 46 4 58 -3 53 -28z m-1888 -39 c0 -62 -15 -91 -22 -42 -3 20 -9 22 -70
25 -78 3 -93 22 -19 22 65 0 81 7 81 36 0 15 6 24 15 24 12 0 15 -14 15 -65z
m1755 47 c0 -18 -20 -15 -23 4 -3 10 1 15 10 12 7 -3 13 -10 13 -16z m130 -62
c4 -6 -9 -10 -32 -9 -38 1 -38 1 -8 9 17 4 31 8 32 9 1 0 5 -3 8 -9z m1207 0
c4 0 9 -8 13 -19 5 -17 23 -19 257 -23 238 -5 251 -6 267 -26 15 -19 32 -21
241 -30 124 -6 268 -8 320 -6 52 2 160 0 240 -4 l145 -7 -3 -35 c-1 -19 -8
-40 -15 -47 -15 -15 -230 -33 -387 -33 -66 0 -168 -7 -227 -15 -81 -11 -179
-14 -393 -11 -157 1 -399 -1 -538 -7 -232 -9 -264 -8 -400 12 -175 24 -243 21
-312 -15 -64 -33 -106 -38 -205 -25 -155 22 -305 25 -363 8 -77 -24 -173 -13
-234 25 -35 22 -63 30 -116 35 -54 4 -69 9 -65 19 4 10 -6 14 -38 16 -24 0
-53 0 -64 -1 -11 -1 -42 4 -70 11 -27 6 -55 11 -62 10 -6 -2 -14 2 -18 8 -3 5
-18 10 -32 10 -15 0 -23 3 -19 7 7 7 9 8 108 17 36 4 81 11 100 17 18 6 134
13 258 15 124 3 240 10 258 16 18 5 76 9 130 9 333 -4 708 20 762 49 13 7 84
14 168 16 80 3 148 6 149 8 2 2 34 2 71 0 37 -2 70 -4 74 -4z m6098 -10 c0 -5
-4 -10 -10 -10 -5 0 -10 5 -10 10 0 6 5 10 10 10 6 0 10 -4 10 -10z m-186 -32
c22 -6 49 -17 60 -24 13 -9 26 -10 43 -3 37 14 43 11 43 -19 0 -55 -48 -73
-90 -35 -8 7 -39 26 -69 41 -86 43 -78 66 13 40z m-10467 -4 c-3 -3 -12 -4
-19 -1 -8 3 -5 6 6 6 11 1 17 -2 13 -5z m1711 -61 c26 -3 42 -10 42 -19 0 -11
-19 -14 -84 -14 -46 0 -98 3 -115 6 -31 6 -31 7 -14 26 18 20 29 21 171 1z
m405 -10 c-23 -2 -64 -2 -90 0 -26 2 -7 3 42 3 50 0 71 -1 48 -3z m5467 -226
c69 -3 229 -8 355 -11 127 -4 277 -11 335 -16 58 -6 175 -17 260 -24 85 -8
317 -18 514 -21 207 -3 364 -9 371 -15 6 -5 85 -10 176 -10 204 -1 408 -12
359 -20 -19 -3 -109 -7 -200 -8 -91 -1 -358 -7 -595 -12 -236 -5 -605 -12
-820 -15 -404 -6 -663 -12 -920 -21 -200 -7 -1484 -4 -1855 4 -162 4 -443 4
-624 0 -434 -10 -2074 18 -2203 38 -45 7 -45 7 -25 26 11 11 34 22 52 24 17 2
35 6 39 9 4 2 122 7 262 10 140 4 297 11 349 17 96 11 237 15 320 10 71 -5
1308 15 1318 22 5 3 247 6 538 7 291 1 552 6 579 10 51 8 1191 5 1415 -4z
m-7100 -113 c916 -1 1246 -6 1259 -19 2 -3 1 -8 -3 -12 -10 -10 -2856 -14
-3038 -4 -132 7 -160 12 -144 28 4 5 121 9 259 11 139 2 259 5 267 7 8 2 101
1 205 -3 105 -3 642 -7 1195 -8z"/>
<path d="M8930 8170 c19 -13 30 -13 30 0 0 6 -10 10 -22 10 -19 0 -20 -2 -8
-10z"/>
<path d="M8645 8140 c3 -5 8 -10 11 -10 2 0 4 5 4 10 0 6 -5 10 -11 10 -5 0
-7 -4 -4 -10z"/>
<path d="M9005 8140 c3 -5 8 -10 11 -10 2 0 4 5 4 10 0 6 -5 10 -11 10 -5 0
-7 -4 -4 -10z"/>
<path d="M8684 8117 c-7 -20 13 -67 30 -67 18 0 46 38 46 62 0 14 -8 18 -35
18 -20 0 -38 -6 -41 -13z"/>
<path d="M9040 8086 c0 -8 5 -18 10 -21 6 -3 10 3 10 14 0 12 -4 21 -10 21 -5
0 -10 -6 -10 -14z"/>
<path d="M9071 8040 c0 -8 4 -24 9 -35 7 -19 8 -19 15 -2 5 12 2 24 -9 35 -13
13 -16 14 -15 2z"/>
<path d="M8383 7695 c-27 -19 -31 -66 -8 -85 12 -10 20 -9 41 4 21 14 25 24
22 54 -3 42 -21 51 -55 27z"/>
<path d="M2690 6150 c-8 -5 -29 -7 -46 -4 -36 7 -74 -9 -74 -31 0 -11 7 -12
32 -4 18 5 49 9 68 9 34 0 60 14 60 32 0 11 -22 10 -40 -2z"/>
<path d="M2856 6110 c-33 -16 -63 -27 -67 -24 -11 6 -39 -7 -39 -18 0 -6 17
-7 43 -3 78 12 117 26 144 50 l28 24 -25 0 c-14 0 -52 -13 -84 -29z"/>
<path d="M2673 6058 c-13 -6 -23 -15 -23 -20 0 -13 67 -9 79 5 21 26 -14 35
-56 15z"/>
<path d="M2525 6032 c-82 -3 -114 -15 -75 -27 40 -13 196 12 164 26 -5 2 -45
3 -89 1z"/>
<path d="M2559 5021 c-14 -11 -43 -22 -65 -26 -57 -10 -121 -41 -139 -69 -15
-22 -12 -56 5 -56 26 0 61 23 74 48 10 19 26 32 48 37 18 4 35 9 38 10 54 21
68 27 87 38 12 6 22 17 23 22 1 19 -46 16 -71 -4z"/>
<path d="M2675 5030 c-3 -6 5 -10 19 -10 14 0 28 5 31 10 3 6 -5 10 -19 10
-14 0 -28 -4 -31 -10z"/>
<path d="M10377 5203 c-4 -3 -7 -38 -7 -77 0 -109 -31 -218 -75 -267 -43 -47
-60 -82 -52 -103 9 -23 38 -19 67 9 14 14 47 44 73 67 60 52 78 86 79 146 1
53 -23 200 -35 220 -9 13 -39 16 -50 5z"/>
<path d="M8575 4786 c-37 -16 -70 -53 -78 -85 -14 -56 45 -106 139 -116 51 -6
67 -4 103 14 33 17 42 27 39 44 -2 16 -11 23 -31 25 -32 4 -45 25 -28 46 15
18 -1 61 -28 75 -27 15 -79 13 -116 -3z"/>
<path d="M11913 3378 c-11 -18 -29 -110 -25 -130 5 -28 58 -23 77 6 19 28 12
90 -13 119 -18 20 -28 21 -39 5z"/>
<path d="M12814 3288 c-49 -76 -104 -188 -104 -210 0 -26 64 -24 102 3 27 19
28 23 14 38 -20 22 -20 58 0 117 10 30 12 50 6 56 -6 6 -13 5 -18 -4z"/>
<path d="M11293 3470 c-32 -38 -43 -70 -23 -70 21 0 80 63 80 86 0 35 -20 29
-57 -16z"/>
<path d="M8049 3153 c-3 -56 11 -130 36 -188 7 -16 18 -45 25 -63 15 -39 59
-77 73 -63 11 11 -3 59 -43 146 -15 33 -30 81 -34 107 -7 45 -26 78 -47 78 -5
0 -9 -8 -10 -17z"/>
<path d="M8447 2942 c-10 -10 -18 -36 -20 -58 -2 -33 1 -39 20 -42 28 -4 45
27 41 75 -4 43 -18 51 -41 25z"/>
<path d="M9462 2993 c-5 -10 -12 -40 -16 -67 -3 -26 -18 -74 -32 -106 -29 -65
-23 -95 21 -106 32 -8 53 9 78 64 15 35 17 56 12 105 -12 109 -39 156 -63 110z"/>
<path d="M9233 2928 c-15 -19 -37 -124 -29 -137 13 -20 42 -12 54 14 13 28 15
77 6 113 -7 25 -17 28 -31 10z"/>
<path d="M1865 9901 c-32 -52 -54 -60 -158 -62 -45 -1 -88 -6 -94 -11 -7 -6
-13 -30 -13 -53 0 -39 -3 -44 -31 -54 -18 -6 -44 -11 -59 -11 -23 0 -29 -6
-38 -39 -7 -21 -12 -52 -12 -69 0 -22 -6 -32 -21 -37 -18 -6 -59 -59 -59 -76
0 -3 16 -26 35 -50 38 -48 44 -73 19 -83 -10 -4 -14 -14 -12 -24 3 -10 -1 -27
-8 -37 -20 -27 -17 -47 11 -78 60 -64 73 -30 79 199 4 149 7 178 22 195 23 26
89 25 129 -1 40 -27 53 -25 61 8 9 38 43 72 72 72 16 0 38 -14 62 -40 31 -33
43 -40 75 -40 22 0 46 -7 56 -16 17 -15 20 -15 43 0 14 9 30 25 36 36 9 17 21
20 73 20 37 0 74 6 92 16 67 35 73 36 111 2 l36 -32 17 22 c9 12 23 30 31 42
8 11 29 22 48 23 44 5 50 14 18 28 -14 7 -26 18 -26 25 0 7 -9 18 -19 24 -11
5 -27 28 -37 50 l-18 40 -72 0 c-45 0 -74 4 -76 11 -3 9 -10 9 -27 0 -18 -10
-33 -10 -69 -1 -26 6 -80 16 -122 21 -41 5 -87 12 -102 15 -23 5 -30 1 -53
-35z"/>
<path d="M11028 9684 c-4 -3 -22 -7 -40 -8 -25 -1 -33 -6 -33 -21 0 -10 -6
-20 -13 -23 -17 -5 -15 -22 3 -22 12 0 14 -30 15 -190 0 -211 0 -211 -63 -194
-25 8 -39 22 -63 67 -17 32 -47 77 -68 99 l-37 42 -31 -34 c-17 -19 -26 -36
-19 -38 14 -5 15 -32 0 -32 -20 0 -5 -64 18 -75 53 -23 23 -97 -44 -110 -40
-7 -73 -30 -73 -51 0 -20 34 -74 46 -74 17 0 24 -25 24 -81 0 -55 -8 -75 -52
-131 -18 -23 -28 -47 -26 -60 3 -23 6 -23 129 -23 l127 0 45 33 c54 39 75 40
83 7 5 -20 13 -25 36 -25 40 0 35 30 -9 49 -29 13 -32 20 -49 97 -14 68 -15
86 -4 99 17 21 33 8 25 -22 -10 -40 13 -90 63 -138 34 -32 55 -45 77 -45 19 0
35 -7 43 -20 19 -30 39 -24 64 20 36 62 69 64 88 5 17 -51 27 -56 105 -44 53
9 77 8 108 -2 39 -13 40 -12 63 16 13 17 35 44 49 62 24 29 26 37 19 91 -7 68
8 112 61 168 28 30 38 34 82 34 33 0 55 -5 63 -15 15 -18 5 -23 -54 -27 -51
-4 -73 -34 -86 -116 -13 -81 1 -136 46 -179 18 -18 39 -33 47 -33 7 0 17 -4
23 -10 13 -13 223 -15 255 -2 24 10 26 16 32 94 10 128 8 211 -7 238 -28 49
21 80 72 44 24 -17 28 -44 10 -73 -10 -16 -8 -26 6 -53 17 -32 17 -36 2 -66
-10 -19 -16 -56 -16 -95 0 -72 2 -74 89 -83 36 -4 49 0 69 18 39 38 44 53 26
97 -11 27 -23 41 -42 46 -34 8 -82 43 -82 60 0 12 29 35 73 60 11 5 26 22 35
37 16 27 15 30 -8 72 -17 32 -39 53 -72 71 -42 23 -58 26 -132 24 -46 -1 -89
1 -95 5 -16 10 -14 33 5 61 23 35 32 227 14 301 -21 88 -82 120 -129 70 -25
-27 -40 -111 -41 -231 0 -135 -29 -183 -122 -203 -70 -16 -123 -4 -163 36 -41
40 -48 65 -55 192 -6 129 -18 163 -69 197 -43 29 -49 29 -43 -2 4 -25 -20 -75
-38 -75 -5 0 -23 13 -39 29 -27 26 -34 29 -63 21 -18 -6 -38 -16 -46 -23 -16
-17 -19 -86 -4 -113 10 -19 -5 -104 -21 -120 -4 -4 -7 -22 -7 -39 0 -34 25
-65 53 -65 27 0 19 -19 -10 -25 -16 -3 -45 -10 -66 -16 -21 -6 -47 -7 -58 -4
-18 6 -20 12 -14 48 3 23 8 98 11 167 l4 125 -33 65 c-30 60 -53 81 -69 64z
m382 -394 c0 -25 -4 -30 -25 -30 -29 0 -33 21 -9 44 23 24 34 19 34 -14z m500
-215 c11 -13 10 -14 -4 -9 -9 3 -16 10 -16 15 0 13 6 11 20 -6z m-684 -51 c3
-13 2 -36 -4 -51 -9 -26 -10 -26 -17 -8 -5 11 -19 35 -32 53 -30 40 -23 55 17
40 18 -6 32 -19 36 -34z m176 -145 c-2 -89 -15 -108 -38 -53 -14 32 -14 44 -4
69 7 17 14 40 17 53 11 46 26 3 25 -69z m556 -28 c7 -45 -57 -58 -77 -15 -15
35 -6 46 37 42 30 -2 38 -7 40 -27z"/>
<path d="M2524 9633 c-4 -16 -19 -54 -35 -86 -16 -32 -29 -62 -29 -68 0 -6 13
-27 30 -45 38 -44 47 -80 29 -113 -17 -30 -57 -38 -98 -22 -20 9 -38 8 -76 -4
-28 -8 -70 -15 -95 -15 -30 0 -58 -8 -85 -25 -49 -30 -96 -32 -120 -5 -18 20
-45 27 -45 12 0 -5 -9 -18 -21 -31 -17 -18 -30 -22 -77 -20 -32 1 -75 -3 -97
-9 -50 -14 -83 -6 -111 27 l-22 26 -7 -40 c-12 -72 -12 -72 -69 -79 -49 -7
-53 -9 -48 -31 4 -23 51 -62 103 -85 27 -12 49 -47 49 -76 0 -13 9 -15 48 -10
67 9 80 8 148 -5 58 -12 63 -11 89 9 15 12 40 22 54 22 15 0 32 5 38 11 8 8
17 1 32 -29 11 -22 27 -42 36 -46 32 -12 64 -6 75 13 5 11 24 29 41 42 28 20
35 21 86 10 33 -6 62 -7 71 -2 17 10 41 88 42 137 0 38 23 96 44 113 10 8 30
10 58 6 63 -10 74 7 52 74 -9 28 -20 54 -25 57 -13 8 -11 51 3 73 9 15 7 32
-11 87 -14 42 -20 78 -16 96 7 28 -7 58 -26 58 -5 0 -12 -12 -15 -27z"/>
<path d="M10740 9651 c-34 -9 -37 -41 -7 -77 13 -16 38 -50 55 -76 61 -90 102
-73 111 47 9 102 0 115 -77 114 -31 -1 -68 -4 -82 -8z"/>
<path d="M11672 9648 c-32 -16 -46 -76 -47 -196 0 -101 1 -104 28 -128 28 -24
89 -33 113 -16 21 14 34 77 34 169 0 73 -5 104 -20 139 -18 39 -24 44 -53 43
-17 0 -42 -5 -55 -11z"/>
<path d="M12165 9589 c-18 -35 -13 -72 14 -108 l18 -24 54 21 c30 11 62 23 73
26 14 5 17 12 11 34 -10 39 -20 49 -72 66 -66 22 -80 20 -98 -15z"/>
<path d="M12173 9378 c-25 -27 -35 -59 -25 -74 12 -18 49 -34 81 -34 39 0 61
-9 61 -25 0 -35 41 -27 59 12 19 41 -2 90 -42 98 -18 4 -47 16 -65 26 -42 24
-44 24 -69 -3z"/>
<path d="M12649 9328 c-86 -30 -99 -75 -27 -93 34 -9 133 45 144 77 13 41 -29
47 -117 16z"/>
<path d="M10623 9282 c-7 -4 -14 -19 -15 -32 -2 -19 2 -26 19 -28 17 -3 24 3
29 22 9 38 -6 55 -33 38z"/>
<path d="M8200 9219 c0 -5 5 -7 10 -4 6 3 10 8 10 11 0 2 -4 4 -10 4 -5 0 -10
-5 -10 -11z"/>
<path d="M13063 8993 c-27 -10 -11 -23 27 -23 29 0 40 4 40 15 0 15 -39 20
-67 8z"/>
<path d="M13300 8966 c0 -9 5 -16 10 -16 6 0 10 4 10 9 0 6 -4 13 -10 16 -5 3
-10 -1 -10 -9z"/>
<path d="M12395 8961 c-21 -4 -31 -13 -33 -29 -4 -29 13 -28 49 2 33 28 28 35
-16 27z"/>
<path d="M8904 8926 c-3 -8 -4 -31 -2 -52 2 -32 7 -40 26 -42 20 -3 22 1 22
40 0 55 -31 92 -46 54z"/>
<path d="M9485 8790 c-3 -5 -1 -10 4 -10 6 0 11 5 11 10 0 6 -2 10 -4 10 -3 0
-8 -4 -11 -10z"/>
<path d="M4893 8433 c-35 -3 -48 -12 -85 -53 -90 -103 -108 -128 -108 -152 0
-13 -7 -33 -15 -44 -30 -40 -8 -181 37 -230 11 -12 25 -44 33 -72 10 -39 25
-63 63 -100 30 -30 65 -78 86 -122 34 -69 36 -74 21 -97 -9 -13 -46 -38 -82
-55 -53 -24 -74 -29 -107 -24 -29 4 -37 3 -26 -4 8 -5 21 -10 28 -10 8 0 25
-9 39 -20 41 -32 144 -24 168 14 12 18 36 92 52 162 3 14 -3 29 -15 40 -12 11
-29 39 -40 64 -11 25 -34 58 -51 75 -36 34 -88 130 -120 223 -23 68 -26 99
-11 134 5 13 14 42 20 65 14 58 82 123 128 123 51 0 127 -29 156 -59 33 -34
46 -129 46 -335 0 -128 2 -143 25 -192 31 -67 80 -94 164 -94 64 0 75 5 86 40
4 14 18 35 31 47 13 12 24 34 24 48 0 37 184 225 220 225 14 0 38 7 54 15 34
18 168 20 215 4 21 -8 33 -19 37 -37 3 -15 10 -42 14 -60 10 -37 2 -127 -12
-155 -17 -34 -114 -68 -182 -66 -37 1 -92 -6 -141 -19 -44 -12 -97 -22 -117
-22 -33 0 -46 -9 -115 -76 l-77 -77 -3 -69 c-3 -67 -2 -70 27 -86 16 -9 30
-23 30 -29 0 -16 57 -46 70 -38 6 4 -8 27 -29 53 -58 69 -61 91 -17 151 27 37
49 54 88 69 60 24 200 48 333 58 l90 7 58 60 c68 70 72 78 81 174 9 87 -5 148
-37 164 -12 6 -35 23 -50 38 -21 19 -43 27 -90 33 -34 4 -79 10 -100 14 -52 9
-140 -20 -170 -56 -13 -15 -33 -31 -45 -34 -12 -4 -25 -18 -28 -32 -4 -14 -19
-31 -35 -40 -16 -8 -29 -20 -29 -27 0 -7 -9 -18 -20 -25 -13 -8 -20 -23 -20
-42 0 -22 -10 -39 -35 -61 -19 -17 -35 -39 -35 -50 0 -22 -53 -52 -91 -51 -45
1 -105 46 -113 84 -4 18 -4 135 0 259 7 219 6 228 -14 260 -42 69 -129 122
-192 117 -14 -1 -44 -3 -67 -5z"/>
<path d="M4375 7628 c-82 -28 -112 -43 -133 -67 -12 -14 -29 -33 -37 -42 -16
-16 -17 -24 -18 -132 0 -64 13 -88 41 -71 13 9 17 27 18 77 2 88 9 107 50 141
26 22 48 30 87 33 100 8 118 21 81 57 -17 18 -44 19 -89 4z"/>
<path d="M5147 7556 l-28 -11 36 -19 c20 -11 38 -30 42 -44 4 -16 8 -20 13
-11 5 7 7 17 5 23 -2 6 -6 23 -9 37 -7 33 -24 40 -59 25z"/>
<path d="M5090 7365 c-15 -17 -5 -35 20 -35 22 0 33 23 17 39 -15 15 -22 14
-37 -4z"/>
<path d="M5600 7340 c-42 -4 -86 -11 -99 -15 l-23 -7 22 -23 c28 -29 95 -38
189 -25 63 9 78 7 134 -11 68 -24 92 -42 133 -101 22 -31 28 -52 30 -105 4
-75 12 -90 43 -74 31 17 37 57 18 129 -21 80 -49 119 -101 144 -23 10 -56 28
-73 39 -27 17 -177 62 -193 57 -3 0 -39 -4 -80 -8z"/>
<path d="M2165 7300 c-3 -6 1 -13 10 -16 19 -8 30 0 20 15 -8 14 -22 14 -30 1z"/>
<path d="M4815 7266 c-23 -7 -41 -19 -43 -29 -3 -14 5 -17 47 -17 42 0 53 -4
65 -22 25 -40 29 -84 10 -120 -18 -35 -91 -128 -111 -141 -23 -15 -70 -94 -96
-163 -23 -59 -27 -85 -27 -175 0 -90 3 -108 18 -122 10 -10 23 -17 29 -17 13
0 36 -27 39 -47 5 -32 14 -43 36 -43 13 0 42 -9 65 -20 30 -13 69 -20 127 -21
79 -2 87 0 135 31 32 21 55 45 63 66 7 18 29 43 48 56 33 22 36 29 43 93 11
99 4 181 -22 245 -13 30 -28 72 -33 93 -7 26 -19 42 -34 48 -13 4 -24 13 -24
19 0 5 -4 10 -10 10 -19 0 -10 -73 16 -128 34 -71 44 -142 32 -222 -12 -83
-34 -135 -64 -149 -13 -5 -26 -21 -30 -35 -8 -34 -78 -51 -152 -37 -67 13 -85
23 -117 66 -15 19 -35 37 -44 40 -28 9 -41 50 -41 128 1 140 11 160 139 292
37 38 53 64 65 107 26 90 22 119 -24 177 -44 55 -45 55 -105 37z"/>
<path d="M4234 7238 c-8 -25 17 -48 53 -48 15 0 27 -8 32 -23 14 -37 35 -47
107 -51 38 -2 74 -5 79 -7 32 -9 175 56 175 80 0 20 -39 20 -95 1 -64 -22
-101 -25 -110 -10 -3 6 -28 10 -56 10 -42 0 -54 5 -88 35 -45 41 -86 47 -97
13z"/>
<path d="M2210 7231 c0 -5 6 -14 13 -20 8 -6 19 -29 26 -51 6 -22 16 -40 21
-40 18 0 10 67 -11 94 -20 25 -49 35 -49 17z"/>
<path d="M5237 7234 c-13 -13 5 -24 38 -24 27 0 37 -6 54 -35 11 -19 26 -35
34 -35 15 0 57 -41 57 -56 0 -6 11 -21 25 -34 13 -12 30 -39 36 -59 20 -63
118 -151 169 -151 27 0 25 16 -5 52 -14 16 -25 36 -25 44 0 7 -13 20 -30 29
-16 9 -30 20 -30 25 0 11 -57 76 -146 167 -44 46 -68 63 -87 63 -14 0 -29 5
-32 10 -7 11 -48 14 -58 4z"/>
<path d="M5131 7177 c-13 -17 -4 -50 13 -44 15 5 20 37 9 48 -6 6 -14 4 -22
-4z"/>
<path d="M2127 7123 c-15 -14 -6 -64 17 -90 28 -33 36 -29 43 24 4 29 1 44
-12 56 -17 18 -37 22 -48 10z"/>
<path d="M2304 7050 c9 -65 15 -80 33 -80 13 0 14 9 9 52 -7 53 -20 78 -39 78
-6 0 -7 -19 -3 -50z"/>
<path d="M2170 6981 c0 -29 34 -65 53 -58 25 9 21 33 -9 56 -33 26 -44 26 -44
2z"/>
<path d="M5888 6889 c-10 -5 -18 -19 -18 -29 0 -34 45 -21 52 14 4 23 -11 29
-34 15z"/>
<path d="M5733 6833 c-20 -7 -15 -23 7 -23 11 0 20 4 20 9 0 13 -12 19 -27 14z"/>
<path d="M5814 6829 c-9 -16 18 -30 33 -17 7 6 13 14 13 19 0 13 -38 11 -46
-2z"/>
<path d="M2256 6808 c-22 -32 -20 -48 7 -48 30 0 60 32 51 54 -9 23 -40 20
-58 -6z"/>
<path d="M4541 6181 c-11 -27 -21 -55 -21 -60 0 -6 -14 -24 -31 -39 -39 -35
-59 -90 -59 -166 0 -60 6 -88 41 -181 17 -47 37 -139 61 -285 6 -36 16 -72 23
-80 7 -8 19 -29 28 -47 13 -27 13 -35 1 -50 -19 -26 -18 -29 24 -50 55 -29
109 -35 172 -18 49 13 65 13 149 -2 80 -14 107 -15 190 -5 53 7 119 12 146 12
l50 0 4 160 c4 177 3 181 -58 206 -43 18 -233 22 -273 6 -23 -9 -27 -19 -34
-69 -12 -102 -18 -108 -129 -131 -27 -6 -69 -16 -93 -22 -40 -12 -45 -11 -67
10 -16 15 -29 45 -39 94 -9 39 -28 123 -42 186 -49 215 -54 245 -54 303 0 68
19 120 52 140 12 8 54 18 91 22 l68 7 37 -39 c65 -66 96 -131 120 -253 4 -20
14 -36 23 -38 23 -4 32 38 14 58 -8 9 -15 34 -15 54 0 39 -27 96 -45 96 -6 0
-15 8 -20 18 -28 51 -58 92 -68 92 -21 1 -55 36 -70 72 -16 38 -41 48 -117 48
-35 0 -39 -3 -59 -49z"/>
<path d="M4743 5953 c-20 -7 -15 -58 6 -77 17 -15 19 -15 25 -1 18 48 1 89
-31 78z"/>
<path d="M4764 5795 c-6 -24 17 -75 34 -75 35 1 48 48 21 77 -29 30 -47 29
-55 -2z"/>
<path d="M4920 5731 c0 -39 13 -111 20 -111 12 0 19 81 9 106 -10 29 -29 32
-29 5z"/>
<path d="M4813 5617 c-29 -13 -35 -30 -17 -56 19 -26 46 -27 69 -1 31 34 -8
78 -52 57z"/>
<path d="M13580 5206 c0 -73 29 -133 91 -191 49 -46 53 -47 65 -30 30 41 12
115 -41 170 -23 23 -51 57 -61 74 -10 17 -26 31 -36 31 -15 0 -18 -9 -18 -54z"/>
<path d="M12279 5153 c-5 -48 -6 -236 -2 -261 5 -30 8 -33 36 -30 22 2 35 11
47 33 10 18 28 32 49 37 17 5 34 15 38 23 11 30 -7 65 -40 79 -38 16 -62 41
-72 76 -4 14 -12 31 -17 38 -11 13 -38 17 -39 5z"/>
<path d="M13117 5154 c-4 -4 -7 -31 -7 -59 0 -38 -6 -60 -21 -79 -12 -15 -23
-45 -26 -66 -5 -36 -3 -40 15 -40 25 0 40 26 71 120 15 46 18 74 13 95 -8 29
-30 43 -45 29z"/>
<path d="M4716 5038 c-3 -13 -6 -37 -6 -53 0 -17 -5 -36 -11 -42 -12 -12 34
-11 102 2 32 6 38 5 44 -14 4 -12 4 -54 0 -94 -8 -85 5 -125 58 -175 33 -32
37 -33 90 -27 32 4 62 3 74 -3 52 -28 68 36 33 135 -28 81 -26 97 15 122 48
28 45 52 -12 96 -41 31 -48 34 -56 19 -5 -9 -5 -32 1 -57 6 -23 9 -43 7 -46
-7 -7 -85 21 -93 33 -4 6 -9 33 -12 61 -7 67 -29 71 -77 15 l-36 -42 -43 46
c-46 51 -69 58 -78 24z m234 -328 c11 -11 20 -22 20 -25 0 -10 -19 -4 -34 11
-15 15 -21 34 -11 34 3 0 14 -9 25 -20z"/>
<path d="M5222 5038 c-11 -14 -15 -38 -13 -75 1 -19 7 -23 35 -23 19 0 42 -7
50 -16 20 -19 20 -63 1 -88 -20 -27 -19 -49 4 -70 10 -9 21 -30 24 -46 5 -23
14 -31 44 -39 21 -6 56 -11 78 -11 22 0 52 -6 67 -14 37 -19 52 0 52 64 0 41
-7 58 -42 108 -53 75 -64 105 -52 136 6 16 5 29 -4 41 -11 16 -16 15 -59 -15
-41 -30 -48 -32 -75 -21 -16 7 -36 27 -45 47 -17 35 -46 45 -65 22z"/>
<path d="M5824 5016 c-8 -20 -1 -47 11 -49 6 -1 11 13 13 31 3 32 -14 45 -24
18z"/>
<path d="M4540 4939 c0 -17 5 -39 10 -49 6 -10 11 -30 12 -44 1 -15 4 -26 6
-26 12 0 92 77 92 88 0 13 -83 62 -104 62 -11 0 -16 -9 -16 -31z"/>
<path d="M3395 4780 c4 -6 11 -8 16 -5 14 9 11 15 -7 15 -8 0 -12 -5 -9 -10z"/>
<path d="M2533 4667 c-39 -13 -52 -37 -20 -37 12 0 30 12 40 25 10 14 17 24
15 24 -2 -1 -17 -7 -35 -12z"/>
<path d="M5836 4657 c-7 -28 1 -57 15 -57 11 0 11 51 0 68 -6 10 -10 7 -15
-11z"/>
<path d="M4211 4584 c0 -11 3 -14 6 -6 3 7 2 16 -1 19 -3 4 -6 -2 -5 -13z"/>
<path d="M5465 4576 c-16 -8 -50 -19 -74 -26 -24 -6 -54 -22 -68 -36 -13 -13
-30 -24 -37 -24 -7 0 -24 -8 -37 -18 -39 -29 -77 -42 -123 -42 -45 0 -61 11
-68 45 -4 18 -7 17 -36 -14 -18 -18 -32 -37 -32 -42 0 -5 16 -9 35 -9 19 0 44
-5 55 -12 35 -22 185 28 235 78 13 13 32 24 42 24 10 0 33 9 52 21 23 14 44
19 65 16 17 -3 40 -7 51 -9 16 -2 20 3 20 27 0 25 -4 30 -25 32 -14 1 -38 -4
-55 -11z"/>
<path d="M4600 4435 c0 -11 67 -75 79 -75 13 0 14 10 3 26 -9 14 -82 57 -82
49z"/>
<path d="M5506 4424 c-9 -8 -16 -20 -16 -25 0 -15 -72 -56 -125 -71 -71 -20
-68 -39 7 -63 l63 -20 3 -48 c3 -47 11 -54 46 -41 25 9 19 37 -14 69 -22 21
-30 38 -30 62 0 18 4 33 8 33 10 0 92 99 92 111 0 14 -17 10 -34 -7z"/>
<path d="M5325 4136 l-29 -12 30 -18 c17 -10 38 -30 46 -43 l15 -25 13 47 c11
40 11 48 -1 56 -19 12 -38 11 -74 -5z"/>
<path d="M4900 4120 c0 -5 4 -10 9 -10 4 0 19 -11 33 -25 l25 -24 21 28 c11
16 18 31 15 35 -10 10 -103 7 -103 -4z"/>
<path d="M5118 4123 c-27 -2 -48 -9 -48 -14 0 -18 54 -58 78 -59 13 0 32 -4
42 -10 15 -8 24 -3 49 32 43 58 33 63 -121 51z"/>
<path d="M5348 4009 c-33 -24 -36 -39 -9 -39 23 0 51 25 51 46 0 19 -10 17
-42 -7z"/>
<path d="M5090 3990 c-22 -17 -23 -19 -7 -25 23 -9 47 1 47 19 0 24 -14 26
-40 6z"/>
<path d="M4960 3980 c0 -14 7 -20 23 -20 32 0 40 10 19 26 -25 19 -42 17 -42
-6z"/>
<path d="M5210 3991 c0 -12 39 -25 48 -16 7 7 -17 25 -35 25 -7 0 -13 -4 -13
-9z"/>
<path d="M4308 3486 c-24 -18 -23 -22 12 -36 16 -7 36 -23 45 -36 20 -30 29
-30 50 2 13 21 14 28 4 40 -7 9 -23 14 -36 11 -16 -3 -24 1 -28 14 -7 22 -23
24 -47 5z"/>
<path d="M5372 3448 c-17 -17 -15 -48 5 -55 10 -4 22 1 32 13 9 11 24 23 34
27 9 3 17 11 17 17 0 12 -10 13 -29 1 -9 -6 -22 -6 -31 -1 -11 6 -21 5 -28 -2z"/>
<path d="M4820 3434 c0 -13 21 -44 30 -44 6 0 10 11 10 25 0 18 -5 25 -20 25
-11 0 -20 -3 -20 -6z"/>
<path d="M8335 500 c-38 -4 -75 -5 -82 -3 -7 3 -18 1 -24 -3 -22 -13 28 -24
145 -30 100 -6 114 -5 130 12 18 17 18 18 0 25 -23 9 -75 9 -169 -1z"/>
<path d="M6100 320 c-13 -9 -11 -13 9 -31 33 -28 65 -22 69 14 3 25 0 27 -30
27 -18 0 -40 -5 -48 -10z"/>
<path d="M6465 310 c3 -5 8 -10 11 -10 2 0 4 5 4 10 0 6 -5 10 -11 10 -5 0 -7
-4 -4 -10z"/>
<path d="M3306 231 c-4 -5 -2 -12 3 -15 5 -4 12 -2 15 3 4 5 2 12 -3 15 -5 4
-12 2 -15 -3z"/>
</g>
</svg>
